<?xml version="1.0" encoding="UTF-8"?>
<!DOCTYPE svg PUBLIC "-//W3C//DTD SVG 1.1//EN" "http://www.w3.org/Graphics/SVG/1.1/DTD/svg11.dtd">
<svg xmlns="http://www.w3.org/2000/svg" version="1.1" width="512px" height="512px" style="shape-rendering:geometricPrecision; text-rendering:geometricPrecision; image-rendering:optimizeQuality; fill-rule:evenodd; clip-rule:evenodd" xmlns:xlink="http://www.w3.org/1999/xlink">
<g><path style="opacity:0.921" fill="#fefffe" d="M 273.5,98.5 C 308.864,98.1864 344.198,98.5197 379.5,99.5C 380.411,108.126 380.745,116.792 380.5,125.5C 383.85,125.335 387.183,125.502 390.5,126C 391.126,126.75 391.626,127.584 392,128.5C 392.333,177.167 392.667,225.833 393,274.5C 394.828,270.829 397.661,268.496 401.5,267.5C 405.009,267.808 406.676,269.808 406.5,273.5C 405.699,276.814 404.199,279.814 402,282.5C 383.167,307.333 364.333,332.167 345.5,357C 343.167,357.667 340.833,357.667 338.5,357C 326.883,344.261 315.383,331.428 304,318.5C 277.919,335.791 251.752,352.958 225.5,370C 222.833,370.667 220.167,370.667 217.5,370C 200.103,360.312 182.603,350.812 165,341.5C 144.281,355.549 124.114,370.382 104.5,386C 99.8467,387.193 97.18,385.359 96.5,380.5C 97.0736,378.941 97.7402,377.441 98.5,376C 118.654,360.424 138.987,345.09 159.5,330C 162.03,328.578 164.697,328.245 167.5,329C 169.917,330.626 172.417,332.126 175,333.5C 175.5,297.835 175.667,262.168 175.5,226.5C 174.022,226.238 172.689,226.571 171.5,227.5C 159.667,245.167 147.833,262.833 136,280.5C 129.552,291.763 120.052,295.596 107.5,292C 98.3491,285.845 95.1825,277.345 98,266.5C 111.573,245.695 125.407,225.028 139.5,204.5C 121.807,174.529 125.473,147.529 150.5,123.5C 172.425,108.881 195.092,107.714 218.5,120C 232.707,129.586 241.541,142.753 245,159.5C 249.054,158.058 253.221,157.058 257.5,156.5C 257.334,146.828 257.5,137.161 258,127.5C 258.5,127 259,126.5 259.5,126C 262.817,125.502 266.15,125.335 269.5,125.5C 269.169,117.14 269.502,108.807 270.5,100.5C 271.739,100.058 272.739,99.3909 273.5,98.5 Z M 280.5,110.5 C 309.833,110.5 339.167,110.5 368.5,110.5C 368.5,115.5 368.5,120.5 368.5,125.5C 339.167,125.5 309.833,125.5 280.5,125.5C 280.5,120.5 280.5,115.5 280.5,110.5 Z M 182.5,122.5 C 213.353,123.52 230.687,139.353 234.5,170C 230.66,197.84 214.827,213.673 187,217.5C 159.263,213.763 143.43,197.93 139.5,170C 142.207,143.467 156.54,127.633 182.5,122.5 Z M 268.5,136.5 C 306.167,136.5 343.833,136.5 381.5,136.5C 381.667,187.834 381.5,239.168 381,290.5C 367.615,307.55 354.615,324.884 342,342.5C 331.648,331.316 321.481,319.982 311.5,308.5C 308.683,305.796 305.35,304.962 301.5,306C 290.917,313.59 280.084,320.756 269,327.5C 268.5,263.834 268.333,200.168 268.5,136.5 Z M 289.5,160.5 C 290.833,160.5 292.167,160.5 293.5,160.5C 293.5,162.5 293.5,164.5 293.5,166.5C 292.167,166.5 290.833,166.5 289.5,166.5C 289.5,164.5 289.5,162.5 289.5,160.5 Z M 322.5,160.5 C 323.833,160.5 325.167,160.5 326.5,160.5C 326.5,162.5 326.5,164.5 326.5,166.5C 325.167,166.5 323.833,166.5 322.5,166.5C 322.5,164.5 322.5,162.5 322.5,160.5 Z M 356.5,160.5 C 357.833,160.5 359.167,160.5 360.5,160.5C 360.5,162.5 360.5,164.5 360.5,166.5C 359.167,166.5 357.833,166.5 356.5,166.5C 356.5,164.5 356.5,162.5 356.5,160.5 Z M 256.5,167.5 C 257.493,175.984 257.826,184.651 257.5,193.5C 251.824,193.666 246.157,193.499 240.5,193C 241.907,189.884 243.24,186.717 244.5,183.5C 244.291,182.914 243.957,182.414 243.5,182C 244.729,178.257 245.729,174.424 246.5,170.5C 250.071,169.919 253.404,168.919 256.5,167.5 Z M 289.5,200.5 C 290.833,200.5 292.167,200.5 293.5,200.5C 293.5,202.833 293.5,205.167 293.5,207.5C 292.167,207.5 290.833,207.5 289.5,207.5C 289.5,205.167 289.5,202.833 289.5,200.5 Z M 322.5,200.5 C 323.833,200.5 325.167,200.5 326.5,200.5C 326.5,202.833 326.5,205.167 326.5,207.5C 325.167,207.5 323.833,207.5 322.5,207.5C 322.5,205.167 322.5,202.833 322.5,200.5 Z M 356.5,200.5 C 357.833,200.5 359.167,200.5 360.5,200.5C 360.5,202.833 360.5,205.167 360.5,207.5C 359.167,207.5 357.833,207.5 356.5,207.5C 356.5,205.167 356.5,202.833 356.5,200.5 Z M 233.5,205.5 C 241.5,205.5 249.5,205.5 257.5,205.5C 257.5,207.167 257.5,208.833 257.5,210.5C 248.161,210.666 238.827,210.5 229.5,210C 231.041,208.629 232.375,207.129 233.5,205.5 Z M 146.5,214.5 C 151.232,216.696 155.898,219.196 160.5,222C 158.724,225.441 156.557,228.608 154,231.5C 149.923,228.212 145.756,225.045 141.5,222C 143.794,219.91 145.461,217.41 146.5,214.5 Z M 213.5,221.5 C 228.167,221.5 242.833,221.5 257.5,221.5C 257.5,224.5 257.5,227.5 257.5,230.5C 238.83,230.333 220.164,230.5 201.5,231C 200.333,231.5 199.5,232.333 199,233.5C 198.333,240.5 198.333,247.5 199,254.5C 199.374,255.416 199.874,256.25 200.5,257C 210.263,258.129 220.097,258.629 230,258.5C 239.075,258.493 248.075,258.16 257,257.5C 257.498,260.482 257.665,263.482 257.5,266.5C 238.83,266.333 220.164,266.5 201.5,267C 200.667,267.833 199.833,268.667 199,269.5C 198.333,276.833 198.333,284.167 199,291.5C 199.833,292.333 200.667,293.167 201.5,294C 220.164,294.5 238.83,294.667 257.5,294.5C 257.5,297.167 257.5,299.833 257.5,302.5C 239.164,302.333 220.83,302.5 202.5,303C 200.667,303.5 199.5,304.667 199,306.5C 198.333,313.5 198.333,320.5 199,327.5C 199.5,328.667 200.333,329.5 201.5,330C 220.164,330.5 238.83,330.667 257.5,330.5C 257.752,333.37 256.752,335.703 254.5,337.5C 243.233,344.381 232.066,351.381 221,358.5C 210.07,352.62 199.237,346.62 188.5,340.5C 187.5,303.173 187.167,265.839 187.5,228.5C 193.939,228.246 200.105,226.913 206,224.5C 206.333,224.833 206.667,225.167 207,225.5C 209.438,224.432 211.605,223.098 213.5,221.5 Z M 134.5,231.5 C 138.945,234.571 143.278,237.904 147.5,241.5C 139.137,253.698 130.97,266.031 123,278.5C 119.583,281.984 115.75,282.817 111.5,281C 108.866,277.961 108.032,274.461 109,270.5C 118.018,257.785 126.518,244.785 134.5,231.5 Z M 289.5,240.5 C 290.833,240.5 292.167,240.5 293.5,240.5C 293.5,242.833 293.5,245.167 293.5,247.5C 292.167,247.5 290.833,247.5 289.5,247.5C 289.5,245.167 289.5,242.833 289.5,240.5 Z M 322.5,240.5 C 323.833,240.5 325.167,240.5 326.5,240.5C 326.5,242.833 326.5,245.167 326.5,247.5C 325.167,247.5 323.833,247.5 322.5,247.5C 322.5,245.167 322.5,242.833 322.5,240.5 Z M 356.5,240.5 C 357.833,240.5 359.167,240.5 360.5,240.5C 360.5,242.833 360.5,245.167 360.5,247.5C 359.167,247.5 357.833,247.5 356.5,247.5C 356.5,245.167 356.5,242.833 356.5,240.5 Z M 209.5,241.5 C 225.5,241.5 241.5,241.5 257.5,241.5C 257.5,243.167 257.5,244.833 257.5,246.5C 241.5,246.5 225.5,246.5 209.5,246.5C 209.5,244.833 209.5,243.167 209.5,241.5 Z M 209.5,277.5 C 225.5,277.5 241.5,277.5 257.5,277.5C 257.5,279.5 257.5,281.5 257.5,283.5C 241.5,283.5 225.5,283.5 209.5,283.5C 209.5,281.5 209.5,279.5 209.5,277.5 Z M 289.5,280.5 C 290.833,280.5 292.167,280.5 293.5,280.5C 293.5,282.833 293.5,285.167 293.5,287.5C 292.167,287.5 290.833,287.5 289.5,287.5C 289.5,285.167 289.5,282.833 289.5,280.5 Z M 322.5,280.5 C 323.833,280.5 325.167,280.5 326.5,280.5C 326.5,282.833 326.5,285.167 326.5,287.5C 325.167,287.5 323.833,287.5 322.5,287.5C 322.5,285.167 322.5,282.833 322.5,280.5 Z M 356.5,280.5 C 357.833,280.5 359.167,280.5 360.5,280.5C 360.5,282.833 360.5,285.167 360.5,287.5C 359.167,287.5 357.833,287.5 356.5,287.5C 356.5,285.167 356.5,282.833 356.5,280.5 Z M 209.5,314.5 C 225.5,314.5 241.5,314.5 257.5,314.5C 257.5,316.167 257.5,317.833 257.5,319.5C 241.5,319.5 225.5,319.5 209.5,319.5C 209.5,317.833 209.5,316.167 209.5,314.5 Z"/></g>
<g><path style="opacity:0.897" fill="#fefffe" d="M 193.5,129.5 C 219.299,135.89 230.299,152.39 226.5,179C 223.335,184.827 219.835,184.994 216,179.5C 218.659,159.002 210.159,145.669 190.5,139.5C 188.583,135.134 189.583,131.8 193.5,129.5 Z"/></g>
<g><path style="opacity:0.946" fill="#fefffe" d="M 279.5,149.5 C 287.752,149.184 295.919,149.518 304,150.5C 304.667,159.167 304.667,167.833 304,176.5C 303.5,177 303,177.5 302.5,178C 295.167,178.667 287.833,178.667 280.5,178C 280,177.5 279.5,177 279,176.5C 278.196,167.422 278.363,158.422 279.5,149.5 Z M 289.5,160.5 C 289.5,162.5 289.5,164.5 289.5,166.5C 290.833,166.5 292.167,166.5 293.5,166.5C 293.5,164.5 293.5,162.5 293.5,160.5C 292.167,160.5 290.833,160.5 289.5,160.5 Z"/></g>
<g><path style="opacity:0.947" fill="#fefffe" d="M 312.5,149.5 C 320.752,149.184 328.919,149.518 337,150.5C 338.808,159.433 338.975,168.433 337.5,177.5C 329.003,179.118 320.67,178.785 312.5,176.5C 311.222,167.471 311.222,158.471 312.5,149.5 Z M 322.5,160.5 C 322.5,162.5 322.5,164.5 322.5,166.5C 323.833,166.5 325.167,166.5 326.5,166.5C 326.5,164.5 326.5,162.5 326.5,160.5C 325.167,160.5 323.833,160.5 322.5,160.5 Z"/></g>
<g><path style="opacity:0.913" fill="#fefffe" d="M 346.5,149.5 C 354.528,149.169 362.528,149.502 370.5,150.5C 371,151.5 371.5,152.5 372,153.5C 372.667,160.5 372.667,167.5 372,174.5C 371.535,175.931 370.701,177.097 369.5,178C 361.784,178.8 354.117,178.633 346.5,177.5C 345.749,176.624 345.249,175.624 345,174.5C 344.333,167.167 344.333,159.833 345,152.5C 345.513,151.473 346.013,150.473 346.5,149.5 Z M 356.5,160.5 C 356.5,162.5 356.5,164.5 356.5,166.5C 357.833,166.5 359.167,166.5 360.5,166.5C 360.5,164.5 360.5,162.5 360.5,160.5C 359.167,160.5 357.833,160.5 356.5,160.5 Z"/></g>
<g><path style="opacity:0.954" fill="#fefffe" d="M 279.5,189.5 C 287.528,189.169 295.528,189.502 303.5,190.5C 304.637,199.118 304.804,207.785 304,216.5C 303.5,217 303,217.5 302.5,218C 294.587,218.814 286.754,218.647 279,217.5C 278.22,208.119 278.387,198.786 279.5,189.5 Z M 289.5,200.5 C 289.5,202.833 289.5,205.167 289.5,207.5C 290.833,207.5 292.167,207.5 293.5,207.5C 293.5,205.167 293.5,202.833 293.5,200.5C 292.167,200.5 290.833,200.5 289.5,200.5 Z"/></g>
<g><path style="opacity:0.953" fill="#fefffe" d="M 313.5,189.5 C 321.42,189.185 329.253,189.518 337,190.5C 338.107,194.888 338.607,199.388 338.5,204C 338.333,207.833 338.167,211.667 338,215.5C 337.626,216.416 337.126,217.25 336.5,218C 329.167,218.667 321.833,218.667 314.5,218C 313.584,217.626 312.75,217.126 312,216.5C 311.333,208.167 311.333,199.833 312,191.5C 312.717,190.956 313.217,190.289 313.5,189.5 Z M 322.5,200.5 C 322.5,202.833 322.5,205.167 322.5,207.5C 323.833,207.5 325.167,207.5 326.5,207.5C 326.5,205.167 326.5,202.833 326.5,200.5C 325.167,200.5 323.833,200.5 322.5,200.5 Z"/></g>
<g><path style="opacity:0.922" fill="#fefffe" d="M 346.5,189.5 C 354.174,189.334 361.841,189.5 369.5,190C 370,190.5 370.5,191 371,191.5C 372.101,195.552 372.601,199.719 372.5,204C 372.333,207.5 372.167,211 372,214.5C 371.5,215.5 371,216.5 370.5,217.5C 362.855,218.665 355.188,218.831 347.5,218C 346.667,217.167 345.833,216.333 345,215.5C 343.961,206.667 344.461,198 346.5,189.5 Z M 356.5,200.5 C 356.5,202.833 356.5,205.167 356.5,207.5C 357.833,207.5 359.167,207.5 360.5,207.5C 360.5,205.167 360.5,202.833 360.5,200.5C 359.167,200.5 357.833,200.5 356.5,200.5 Z"/></g>
<g><path style="opacity:0.949" fill="#fefffe" d="M 279.5,229.5 C 287.528,229.169 295.528,229.502 303.5,230.5C 304.637,239.118 304.804,247.785 304,256.5C 303.5,257 303,257.5 302.5,258C 295.167,258.667 287.833,258.667 280.5,258C 280,257.5 279.5,257 279,256.5C 278.223,247.452 278.389,238.452 279.5,229.5 Z M 289.5,240.5 C 289.5,242.833 289.5,245.167 289.5,247.5C 290.833,247.5 292.167,247.5 293.5,247.5C 293.5,245.167 293.5,242.833 293.5,240.5C 292.167,240.5 290.833,240.5 289.5,240.5 Z"/></g>
<g><path style="opacity:0.946" fill="#fefffe" d="M 312.5,229.5 C 320.752,229.184 328.919,229.518 337,230.5C 338.107,234.888 338.607,239.388 338.5,244C 338.333,247.833 338.167,251.667 338,255.5C 337.626,256.416 337.126,257.25 336.5,258C 329.167,258.667 321.833,258.667 314.5,258C 313.584,257.626 312.75,257.126 312,256.5C 311.223,247.452 311.389,238.452 312.5,229.5 Z M 322.5,240.5 C 322.5,242.833 322.5,245.167 322.5,247.5C 323.833,247.5 325.167,247.5 326.5,247.5C 326.5,245.167 326.5,242.833 326.5,240.5C 325.167,240.5 323.833,240.5 322.5,240.5 Z"/></g>
<g><path style="opacity:0.916" fill="#fefffe" d="M 346.5,229.5 C 354.528,229.169 362.528,229.502 370.5,230.5C 371,231.5 371.5,232.5 372,233.5C 372.667,240.5 372.667,247.5 372,254.5C 371.535,255.931 370.701,257.097 369.5,258C 361.812,258.831 354.145,258.665 346.5,257.5C 346,256.5 345.5,255.5 345,254.5C 343.967,245.998 344.467,237.665 346.5,229.5 Z M 356.5,240.5 C 356.5,242.833 356.5,245.167 356.5,247.5C 357.833,247.5 359.167,247.5 360.5,247.5C 360.5,245.167 360.5,242.833 360.5,240.5C 359.167,240.5 357.833,240.5 356.5,240.5 Z"/></g>
<g><path style="opacity:0.918" fill="#fefffe" d="M 280.5,269.5 C 287.841,269.334 295.174,269.5 302.5,270C 303,270.5 303.5,271 304,271.5C 304.816,280.412 304.65,289.245 303.5,298C 296.274,299.594 288.94,299.928 281.5,299C 280.584,298.626 279.75,298.126 279,297.5C 278.333,288.833 278.333,280.167 279,271.5C 279.717,270.956 280.217,270.289 280.5,269.5 Z M 289.5,280.5 C 289.5,282.833 289.5,285.167 289.5,287.5C 290.833,287.5 292.167,287.5 293.5,287.5C 293.5,285.167 293.5,282.833 293.5,280.5C 292.167,280.5 290.833,280.5 289.5,280.5 Z"/></g>
<g><path style="opacity:0.918" fill="#fefffe" d="M 313.5,269.5 C 321.196,269.169 328.862,269.503 336.5,270.5C 336.808,271.308 337.308,271.975 338,272.5C 338.667,280.167 338.667,287.833 338,295.5C 337.626,296.416 337.126,297.25 336.5,298C 329.274,299.594 321.94,299.928 314.5,299C 313.667,298.167 312.833,297.333 312,296.5C 311.333,288.167 311.333,279.833 312,271.5C 312.717,270.956 313.217,270.289 313.5,269.5 Z M 322.5,280.5 C 322.5,282.833 322.5,285.167 322.5,287.5C 323.833,287.5 325.167,287.5 326.5,287.5C 326.5,285.167 326.5,282.833 326.5,280.5C 325.167,280.5 323.833,280.5 322.5,280.5 Z"/></g>
<g><path style="opacity:0.892" fill="#fefffe" d="M 347.5,269.5 C 354.841,269.334 362.174,269.5 369.5,270C 370,270.5 370.5,271 371,271.5C 372.563,279.087 372.896,286.754 372,294.5C 371.215,296.286 370.049,297.786 368.5,299C 361.833,299.667 355.167,299.667 348.5,299C 347.5,298.167 346.5,297.333 345.5,296.5C 344.367,288.883 344.2,281.216 345,273.5C 345.662,272.016 346.496,270.683 347.5,269.5 Z M 356.5,280.5 C 356.5,282.833 356.5,285.167 356.5,287.5C 357.833,287.5 359.167,287.5 360.5,287.5C 360.5,285.167 360.5,282.833 360.5,280.5C 359.167,280.5 357.833,280.5 356.5,280.5 Z"/></g>
<g><path style="opacity:0.916" fill="#fefffe" d="M 399.5,322.5 C 401.5,322.833 403.5,323.167 405.5,323.5C 406.472,348.801 406.805,374.134 406.5,399.5C 412.892,400.609 414.892,404.275 412.5,410.5C 307.5,411.833 202.5,411.833 97.5,410.5C 95.487,406.042 96.487,402.542 100.5,400C 109.827,399.5 119.161,399.334 128.5,399.5C 128.334,393.491 128.501,387.491 129,381.5C 132.648,378.603 135.981,378.937 139,382.5C 139.499,388.157 139.666,393.824 139.5,399.5C 145.5,399.5 151.5,399.5 157.5,399.5C 157.334,391.493 157.5,383.493 158,375.5C 158.426,372.239 160.259,370.572 163.5,370.5C 165.912,370.406 167.745,371.406 169,373.5C 169.5,382.16 169.666,390.827 169.5,399.5C 175.5,399.5 181.5,399.5 187.5,399.5C 187.334,392.159 187.5,384.826 188,377.5C 189.353,376.296 191.019,375.629 193,375.5C 194.981,375.629 196.647,376.296 198,377.5C 198.5,384.826 198.666,392.159 198.5,399.5C 204.833,399.5 211.167,399.5 217.5,399.5C 217.334,393.824 217.501,388.157 218,382.5C 221.261,378.638 224.594,378.638 228,382.5C 228.499,388.157 228.666,393.824 228.5,399.5C 234.5,399.5 240.5,399.5 246.5,399.5C 246.334,391.493 246.5,383.493 247,375.5C 249.569,372.43 252.736,371.763 256.5,373.5C 257.192,374.025 257.692,374.692 258,375.5C 258.5,383.493 258.666,391.493 258.5,399.5C 264.5,399.5 270.5,399.5 276.5,399.5C 276.333,387.162 276.5,374.829 277,362.5C 279.855,359.046 283.021,358.713 286.5,361.5C 287.499,374.149 287.832,386.816 287.5,399.5C 293.833,399.5 300.167,399.5 306.5,399.5C 306.333,384.496 306.5,369.496 307,354.5C 310.333,351.833 313.667,351.833 317,354.5C 317.5,369.496 317.667,384.496 317.5,399.5C 323.5,399.5 329.5,399.5 335.5,399.5C 335.334,390.161 335.5,380.827 336,371.5C 338.218,367.685 341.384,366.685 345.5,368.5C 346.251,369.376 346.751,370.376 347,371.5C 347.5,380.827 347.666,390.161 347.5,399.5C 353.5,399.5 359.5,399.5 365.5,399.5C 365.333,384.496 365.5,369.496 366,354.5C 369.174,352.379 372.507,352.046 376,353.5C 376.5,368.83 376.667,384.163 376.5,399.5C 382.5,399.5 388.5,399.5 394.5,399.5C 394.333,375.164 394.5,350.831 395,326.5C 396.196,324.714 397.696,323.381 399.5,322.5 Z"/></g>
</svg>
