<?xml version="1.0" encoding="UTF-8"?>
<!DOCTYPE svg PUBLIC "-//W3C//DTD SVG 1.1//EN" "http://www.w3.org/Graphics/SVG/1.1/DTD/svg11.dtd">
<svg xmlns="http://www.w3.org/2000/svg" version="1.1" width="512px" height="512px" style="shape-rendering:geometricPrecision; text-rendering:geometricPrecision; image-rendering:optimizeQuality; fill-rule:evenodd; clip-rule:evenodd" xmlns:xlink="http://www.w3.org/1999/xlink">
<g><path style="opacity:0.915" fill="#fefffe" d="M 113.5,105.5 C 173.559,105.011 233.559,105.511 293.5,107C 295.969,109.441 297.802,112.274 299,115.5C 299.167,148.505 299.667,181.505 300.5,214.5C 302.957,212.775 305.623,212.275 308.5,213C 312.929,216.295 317.429,219.462 322,222.5C 330.109,216.728 337.943,210.562 345.5,204C 351.774,201.033 356.608,202.533 360,208.5C 361.064,215.458 361.731,222.458 362,229.5C 361.657,222.489 364.657,220.156 371,222.5C 371.369,233.933 367.203,243.433 358.5,251C 371.417,253.455 381.751,259.955 389.5,270.5C 391.205,275.845 389.205,278.011 383.5,277C 375.847,266.342 365.514,260.675 352.5,260C 371.677,280.203 387.511,302.703 400,327.5C 405.578,342.109 406.911,357.109 404,372.5C 397.01,388.158 385.51,398.991 369.5,405C 334.833,405.667 300.167,405.667 265.5,405C 246.641,397.979 234.641,384.812 229.5,365.5C 191.832,365.667 154.165,365.5 116.5,365C 111.611,364.444 108.111,361.944 106,357.5C 105.333,276.167 105.333,194.833 106,113.5C 107.69,109.979 110.19,107.312 113.5,105.5 Z M 119.5,112.5 C 174.501,112.333 229.501,112.5 284.5,113C 286.587,113.792 288.421,114.959 290,116.5C 290.5,151.832 290.667,187.165 290.5,222.5C 286.329,220.249 281.995,218.249 277.5,216.5C 273.25,216.692 270.416,218.692 269,222.5C 269.109,215.391 268.276,208.557 266.5,202C 256.167,201.333 245.833,201.333 235.5,202C 235,202.5 234.5,203 234,203.5C 233.168,213.849 233.334,224.183 234.5,234.5C 235.308,234.808 235.975,235.308 236.5,236C 246.5,236.667 256.5,236.667 266.5,236C 267.893,234.829 268.727,233.329 269,231.5C 271.766,241.867 277.599,250.033 286.5,256C 280.695,262.474 274.862,268.974 269,275.5C 268.667,267.833 268.333,260.167 268,252.5C 267.5,252 267,251.5 266.5,251C 261.333,250.833 256.167,250.667 251,250.5C 245.324,250.549 239.824,251.215 234.5,252.5C 233.667,279.494 233.167,306.494 233,333.5C 230.375,341.294 228.875,349.294 228.5,357.5C 191.832,357.667 155.165,357.5 118.5,357C 115.619,355.749 113.786,353.583 113,350.5C 112.333,273.5 112.333,196.5 113,119.5C 114.018,115.985 116.185,113.652 119.5,112.5 Z M 144.5,144.5 C 183.167,144.5 221.833,144.5 260.5,144.5C 260.5,156.5 260.5,168.5 260.5,180.5C 221.833,180.5 183.167,180.5 144.5,180.5C 144.5,168.5 144.5,156.5 144.5,144.5 Z M 144.5,209.5 C 150.167,209.5 155.833,209.5 161.5,209.5C 161.5,215.833 161.5,222.167 161.5,228.5C 155.491,228.666 149.491,228.499 143.5,228C 144.476,221.924 144.81,215.758 144.5,209.5 Z M 193.5,209.5 C 199.5,209.5 205.5,209.5 211.5,209.5C 211.5,215.833 211.5,222.167 211.5,228.5C 205.5,228.5 199.5,228.5 193.5,228.5C 193.5,222.167 193.5,215.833 193.5,209.5 Z M 242.5,209.5 C 248.5,209.5 254.5,209.5 260.5,209.5C 260.5,215.833 260.5,222.167 260.5,228.5C 254.5,228.5 248.5,228.5 242.5,228.5C 242.5,222.167 242.5,215.833 242.5,209.5 Z M 349.5,211.5 C 350.75,211.577 351.583,212.244 352,213.5C 355.396,231.746 348.729,244.746 332,252.5C 331.5,252.333 331,252.167 330.5,252C 333.161,247.905 333.995,243.405 333,238.5C 331.164,236.396 328.998,236.062 326.5,237.5C 325.469,242.519 323.636,247.185 321,251.5C 319.247,252.627 317.413,253.627 315.5,254.5C 313.587,253.627 311.753,252.627 310,251.5C 307.178,247.047 305.345,242.214 304.5,237C 301.975,236.104 299.808,236.604 298,238.5C 296.877,243.436 297.71,247.936 300.5,252C 287.456,248.519 279.456,240.019 276.5,226.5C 276.833,226.167 277.167,225.833 277.5,225.5C 279.993,227.58 282.659,229.414 285.5,231C 287.833,231.667 290.167,231.667 292.5,231C 296.974,228.027 301.307,224.86 305.5,221.5C 309.693,224.86 314.026,228.027 318.5,231C 320.833,231.667 323.167,231.667 325.5,231C 334.047,224.931 342.047,218.431 349.5,211.5 Z M 143.5,259.5 C 149.31,258.51 155.31,258.177 161.5,258.5C 161.5,264.833 161.5,271.167 161.5,277.5C 155.833,277.5 150.167,277.5 144.5,277.5C 144.823,271.31 144.49,265.31 143.5,259.5 Z M 193.5,258.5 C 199.5,258.5 205.5,258.5 211.5,258.5C 211.5,264.833 211.5,271.167 211.5,277.5C 205.5,277.5 199.5,277.5 193.5,277.5C 193.5,271.167 193.5,264.833 193.5,258.5 Z M 242.5,258.5 C 248.5,258.5 254.5,258.5 260.5,258.5C 260.666,267.839 260.5,277.173 260,286.5C 254.086,294.66 248.419,302.993 243,311.5C 242.5,293.836 242.333,276.17 242.5,258.5 Z M 337.5,259.5 C 339.39,259.297 340.89,259.963 342,261.5C 361.775,281.729 378.108,304.396 391,329.5C 404.586,357.692 398.086,379.526 371.5,395C 367.943,396.408 364.276,397.408 360.5,398C 331.833,398.667 303.167,398.667 274.5,398C 246.145,390.638 234.312,372.471 239,343.5C 242.307,332.591 246.973,322.258 253,312.5C 264.703,293.933 278.203,276.766 293.5,261C 296.747,260.562 299.747,261.228 302.5,263C 298.273,268.595 296.939,274.762 298.5,281.5C 300.5,282.833 302.5,282.833 304.5,281.5C 305.178,276.081 307.344,271.414 311,267.5C 311.333,270.5 311.667,273.5 312,276.5C 314.333,279.167 316.667,279.167 319,276.5C 319.333,273.167 319.667,269.833 320,266.5C 323.455,270.902 325.621,275.902 326.5,281.5C 331.473,283.829 333.806,282.329 333.5,277C 333.511,271.696 331.844,267.029 328.5,263C 331.662,261.973 334.662,260.806 337.5,259.5 Z M 310.5,302.5 C 331.777,300.962 345.61,310.295 352,330.5C 354.529,351.63 345.696,365.463 325.5,372C 304.113,374.594 289.946,365.76 283,345.5C 280.615,323.572 289.782,309.239 310.5,302.5 Z M 144.5,308.5 C 150.167,308.5 155.833,308.5 161.5,308.5C 161.5,314.5 161.5,320.5 161.5,326.5C 155.833,326.5 150.167,326.5 144.5,326.5C 144.5,320.5 144.5,314.5 144.5,308.5 Z M 193.5,308.5 C 199.5,308.5 205.5,308.5 211.5,308.5C 211.5,314.5 211.5,320.5 211.5,326.5C 205.5,326.5 199.5,326.5 193.5,326.5C 193.5,320.5 193.5,314.5 193.5,308.5 Z M 321.5,343.5 C 323.95,343.874 324.95,345.374 324.5,348C 324.691,349.973 324.024,351.473 322.5,352.5C 321.516,349.572 321.183,346.572 321.5,343.5 Z"/></g>
<g><path style="opacity:0.854" fill="#fefffe" d="M 136.5,135.5 C 179.835,135.333 223.168,135.5 266.5,136C 267.818,144.435 268.485,153.102 268.5,162C 268.333,170.5 268.167,179 268,187.5C 267.5,188 267,188.5 266.5,189C 223.5,189.667 180.5,189.667 137.5,189C 137,188.5 136.5,188 136,187.5C 135.182,170.093 135.348,152.76 136.5,135.5 Z M 144.5,144.5 C 144.5,156.5 144.5,168.5 144.5,180.5C 183.167,180.5 221.833,180.5 260.5,180.5C 260.5,168.5 260.5,156.5 260.5,144.5C 221.833,144.5 183.167,144.5 144.5,144.5 Z"/></g>
<g><path style="opacity:0.879" fill="#fefffe" d="M 136.5,201.5 C 147.415,201.18 158.248,201.513 169,202.5C 170.12,207.893 170.62,213.393 170.5,219C 170.333,223.833 170.167,228.667 170,233.5C 169.626,234.416 169.126,235.25 168.5,236C 158.167,236.667 147.833,236.667 137.5,236C 137,235.5 136.5,235 136,234.5C 135.191,223.424 135.358,212.424 136.5,201.5 Z M 144.5,209.5 C 144.81,215.758 144.476,221.924 143.5,228C 149.491,228.499 155.491,228.666 161.5,228.5C 161.5,222.167 161.5,215.833 161.5,209.5C 155.833,209.5 150.167,209.5 144.5,209.5 Z"/></g>
<g><path style="opacity:0.899" fill="#fefffe" d="M 185.5,201.5 C 196.415,201.18 207.248,201.513 218,202.5C 219.121,208.061 219.621,213.727 219.5,219.5C 219.333,224.5 219.167,229.5 219,234.5C 218.5,235 218,235.5 217.5,236C 207.167,236.667 196.833,236.667 186.5,236C 186,235.5 185.5,235 185,234.5C 184.212,223.454 184.378,212.454 185.5,201.5 Z M 193.5,209.5 C 193.5,215.833 193.5,222.167 193.5,228.5C 199.5,228.5 205.5,228.5 211.5,228.5C 211.5,222.167 211.5,215.833 211.5,209.5C 205.5,209.5 199.5,209.5 193.5,209.5 Z"/></g>
<g><path style="opacity:0.88" fill="#fefffe" d="M 136.5,250.5 C 147.415,250.18 158.248,250.513 169,251.5C 170.12,256.893 170.62,262.393 170.5,268C 170.333,272.833 170.167,277.667 170,282.5C 169.626,283.416 169.126,284.25 168.5,285C 157.818,285.832 147.151,285.666 136.5,284.5C 135.188,273.167 135.188,261.834 136.5,250.5 Z M 143.5,259.5 C 144.49,265.31 144.823,271.31 144.5,277.5C 150.167,277.5 155.833,277.5 161.5,277.5C 161.5,271.167 161.5,264.833 161.5,258.5C 155.31,258.177 149.31,258.51 143.5,259.5 Z"/></g>
<g><path style="opacity:0.9" fill="#fefffe" d="M 186.5,250.5 C 197.082,250.18 207.582,250.513 218,251.5C 219.12,256.893 219.62,262.393 219.5,268C 219.333,272.833 219.167,277.667 219,282.5C 218.626,283.416 218.126,284.25 217.5,285C 206.818,285.832 196.151,285.666 185.5,284.5C 184.357,273.88 184.19,263.214 185,252.5C 185.717,251.956 186.217,251.289 186.5,250.5 Z M 193.5,258.5 C 193.5,264.833 193.5,271.167 193.5,277.5C 199.5,277.5 205.5,277.5 211.5,277.5C 211.5,271.167 211.5,264.833 211.5,258.5C 205.5,258.5 199.5,258.5 193.5,258.5 Z"/></g>
<g><path style="opacity:0.873" fill="#fefffe" d="M 311.5,293.5 C 341.699,293.043 358.366,307.709 361.5,337.5C 360.125,358.703 349.458,372.87 329.5,380C 302.634,384.991 284.467,374.824 275,349.5C 270.424,319.603 282.591,300.937 311.5,293.5 Z M 310.5,302.5 C 289.782,309.239 280.615,323.572 283,345.5C 289.946,365.76 304.113,374.594 325.5,372C 345.696,365.463 354.529,351.63 352,330.5C 345.61,310.295 331.777,300.962 310.5,302.5 Z M 321.5,343.5 C 321.183,346.572 321.516,349.572 322.5,352.5C 324.024,351.473 324.691,349.973 324.5,348C 324.95,345.374 323.95,343.874 321.5,343.5 Z"/></g>
<g><path style="opacity:0.875" fill="#fefffe" d="M 136.5,300.5 C 147.52,300.168 158.52,300.501 169.5,301.5C 170.642,311.786 170.809,322.12 170,332.5C 169.167,333.333 168.333,334.167 167.5,335C 157.833,335.667 148.167,335.667 138.5,335C 137.584,334.626 136.75,334.126 136,333.5C 135.212,322.454 135.378,311.454 136.5,300.5 Z M 144.5,308.5 C 144.5,314.5 144.5,320.5 144.5,326.5C 150.167,326.5 155.833,326.5 161.5,326.5C 161.5,320.5 161.5,314.5 161.5,308.5C 155.833,308.5 150.167,308.5 144.5,308.5 Z"/></g>
<g><path style="opacity:0.894" fill="#fefffe" d="M 185.5,300.5 C 196.748,300.179 207.915,300.513 219,301.5C 219.667,311.833 219.667,322.167 219,332.5C 218.308,333.025 217.808,333.692 217.5,334.5C 207.517,335.666 197.517,335.832 187.5,335C 186.584,334.626 185.75,334.126 185,333.5C 184.212,322.454 184.378,311.454 185.5,300.5 Z M 193.5,308.5 C 193.5,314.5 193.5,320.5 193.5,326.5C 199.5,326.5 205.5,326.5 211.5,326.5C 211.5,320.5 211.5,314.5 211.5,308.5C 205.5,308.5 199.5,308.5 193.5,308.5 Z"/></g>
<g><path style="opacity:0.908" fill="#fefffe" d="M 316.5,305.5 C 320.994,306.159 322.661,308.825 321.5,313.5C 329.748,314.732 333.414,319.399 332.5,327.5C 331.562,328.553 330.395,329.22 329,329.5C 325.929,327.932 323.762,325.598 322.5,322.5C 321.509,326.445 321.176,330.445 321.5,334.5C 329.212,335.712 333.212,340.212 333.5,348C 332.972,355.521 329.139,360.355 322,362.5C 321.689,364.556 321.189,366.556 320.5,368.5C 318.926,369.631 317.259,369.798 315.5,369C 314.029,366.757 313.029,364.257 312.5,361.5C 306.733,359.4 303.066,355.4 301.5,349.5C 302.486,345.853 304.819,344.686 308.5,346C 309.88,347.925 311.38,349.759 313,351.5C 313.825,347.789 313.659,344.122 312.5,340.5C 304.358,335.636 301.858,328.636 305,319.5C 307.067,316.93 309.567,314.93 312.5,313.5C 313.308,311.577 313.808,309.577 314,307.5C 314.995,306.934 315.828,306.267 316.5,305.5 Z M 321.5,343.5 C 321.183,346.572 321.516,349.572 322.5,352.5C 324.024,351.473 324.691,349.973 324.5,348C 324.95,345.374 323.95,343.874 321.5,343.5 Z"/></g>
</svg>
