<?xml version="1.0" encoding="UTF-8"?>
<!DOCTYPE svg PUBLIC "-//W3C//DTD SVG 1.1//EN" "http://www.w3.org/Graphics/SVG/1.1/DTD/svg11.dtd">
<svg xmlns="http://www.w3.org/2000/svg" version="1.1" width="512px" height="512px" style="shape-rendering:geometricPrecision; text-rendering:geometricPrecision; image-rendering:optimizeQuality; fill-rule:evenodd; clip-rule:evenodd" xmlns:xlink="http://www.w3.org/1999/xlink">
<g><path style="opacity:0.897" fill="#fefffe" d="M 155.5,125.5 C 215.834,125.333 276.168,125.5 336.5,126C 348.549,130.388 356.049,138.888 359,151.5C 359.833,195.504 359.667,239.504 358.5,283.5C 356.438,285.725 354.105,286.058 351.5,284.5C 350.667,242.171 350.167,199.837 350,157.5C 349.028,147.722 344.195,140.555 335.5,136C 286.532,134.362 237.532,134.029 188.5,135C 192.762,139.355 195.595,144.522 197,150.5C 197.667,161.833 197.667,173.167 197,184.5C 194.544,186.321 191.711,186.988 188.5,186.5C 188.5,183.833 188.5,181.167 188.5,178.5C 170.488,178.833 152.488,178.5 134.5,177.5C 134.192,176.692 133.692,176.025 133,175.5C 132.333,168.167 132.333,160.833 133,153.5C 134.933,140.032 142.433,130.698 155.5,125.5 Z M 159.5,134.5 C 181.045,135.076 190.711,146.41 188.5,168.5C 173.167,168.5 157.833,168.5 142.5,168.5C 139.535,152.555 145.202,141.222 159.5,134.5 Z"/></g>
<g><path style="opacity:0.879" fill="#fefffe" d="M 218.5,158.5 C 255.168,158.333 291.835,158.5 328.5,159C 330.444,161.153 330.944,163.653 330,166.5C 328.933,167.191 327.766,167.691 326.5,168C 290.5,168.667 254.5,168.667 218.5,168C 214.581,164.84 214.581,161.673 218.5,158.5 Z"/></g>
<g><path style="opacity:0.897" fill="#fefffe" d="M 217.5,177.5 C 254.502,177.333 291.502,177.5 328.5,178C 330.706,180.209 331.04,182.709 329.5,185.5C 291.833,186.833 254.167,186.833 216.5,185.5C 215.025,182.557 215.358,179.891 217.5,177.5 Z"/></g>
<g><path style="opacity:0.881" fill="#fefffe" d="M 190.5,191.5 C 193.32,191.248 195.986,191.748 198.5,193C 200.191,197.261 202.524,201.095 205.5,204.5C 208.236,201.345 210.236,197.678 211.5,193.5C 214.279,191.703 217.279,191.203 220.5,192C 224.833,193.667 229.167,195.333 233.5,197C 235.248,198.606 236.248,200.606 236.5,203C 235.098,207.1 234.264,211.267 234,215.5C 236.647,216.464 239.147,215.964 241.5,214C 244.5,213.333 247.5,213.333 250.5,214C 255.59,220.764 257.924,228.264 257.5,236.5C 253.935,239.46 249.935,241.46 245.5,242.5C 245.33,243.822 245.663,244.989 246.5,246C 251.188,247.224 255.021,249.724 258,253.5C 257.668,260.833 255.501,267.667 251.5,274C 245.99,276.001 240.656,275.501 235.5,272.5C 234.914,272.709 234.414,273.043 234,273.5C 234.419,277.353 235.253,281.187 236.5,285C 236.561,287.261 235.894,289.261 234.5,291C 229.799,293.008 225.133,295.008 220.5,297C 218.141,297.208 215.974,297.374 214,297.5C 210.886,293.271 208.053,288.938 205.5,284.5C 202.773,288.794 199.773,292.961 196.5,297C 188.743,296.802 181.743,294.302 175.5,289.5C 174.954,288.228 174.621,286.894 174.5,285.5C 175.361,281.405 176.194,277.405 177,273.5C 176.439,272.978 175.772,272.645 175,272.5C 171.314,273.514 167.648,274.514 164,275.5C 161.159,275 158.993,273.5 157.5,271C 155.401,266.305 153.735,261.472 152.5,256.5C 152.569,254.291 153.236,252.291 154.5,250.5C 158.678,249.236 162.345,247.236 165.5,244.5C 162.163,241.829 158.496,239.663 154.5,238C 152.127,233.994 151.96,229.827 154,225.5C 155.179,222.481 156.513,219.481 158,216.5C 159.853,214.408 162.186,213.408 165,213.5C 169.219,214.409 173.385,215.409 177.5,216.5C 176.352,212.238 175.352,207.904 174.5,203.5C 174.577,201.701 175.077,200.034 176,198.5C 180.668,195.641 185.501,193.308 190.5,191.5 Z M 191.5,201.5 C 193.417,204.717 195.251,208.051 197,211.5C 201.997,213.735 207.164,214.068 212.5,212.5C 215,208.833 217.5,205.167 220,201.5C 221.8,203.317 223.966,204.484 226.5,205C 219.785,215.4 222.285,222.566 234,226.5C 237.48,225.964 240.813,224.964 244,223.5C 245.864,225.723 247.364,228.223 248.5,231C 245.029,233.072 241.362,234.572 237.5,235.5C 237.688,237.103 237.188,238.437 236,239.5C 235.333,242.833 235.333,246.167 236,249.5C 236.465,250.931 237.299,252.097 238.5,253C 241.921,254.475 245.254,256.141 248.5,258C 246.996,259.491 246.163,261.324 246,263.5C 245.439,264.022 244.772,264.355 244,264.5C 233.686,259.115 226.519,261.948 222.5,273C 224.063,276.745 224.897,280.578 225,284.5C 223.215,285.24 221.382,285.907 219.5,286.5C 217.535,283.675 215.701,280.675 214,277.5C 213.097,276.299 211.931,275.465 210.5,275C 207.167,274.333 203.833,274.333 200.5,275C 199.437,276.188 198.103,276.688 196.5,276.5C 195.866,279.937 194.533,283.104 192.5,286C 189.416,286.225 186.75,285.225 184.5,283C 190.062,272.967 187.562,265.8 177,261.5C 173.206,262.53 169.54,263.863 166,265.5C 165.484,262.966 164.317,260.8 162.5,259C 166.599,256.523 170.432,253.69 174,250.5C 174.879,245.713 174.545,241.047 173,236.5C 169.696,234.288 166.196,232.455 162.5,231C 163.965,228.57 165.298,226.07 166.5,223.5C 174.767,228.682 181.6,227.349 187,219.5C 187.766,214.56 186.932,209.893 184.5,205.5C 187.05,204.396 189.383,203.063 191.5,201.5 Z M 201.5,233.5 C 212.483,232.796 217.317,237.796 216,248.5C 210.157,256.916 203.491,257.583 196,250.5C 192.783,243.102 194.617,237.435 201.5,233.5 Z"/></g>
<g><path style="opacity:0.882" fill="#fefffe" d="M 242.5,196.5 C 271.169,196.333 299.835,196.5 328.5,197C 331.359,200.761 330.692,203.761 326.5,206C 299.167,206.667 271.833,206.667 244.5,206C 241.354,203.44 240.687,200.273 242.5,196.5 Z"/></g>
<g><path style="opacity:0.906" fill="#fefffe" d="M 261.5,215.5 C 283.836,215.333 306.169,215.5 328.5,216C 331.167,218.667 331.167,221.333 328.5,224C 306.167,224.667 283.833,224.667 261.5,224C 258.925,221.174 258.925,218.341 261.5,215.5 Z"/></g>
<g><path style="opacity:0.883" fill="#fefffe" d="M 201.5,223.5 C 220.729,223.965 228.562,233.631 225,252.5C 218.825,264.094 209.325,267.927 196.5,264C 184.944,256.962 181.778,247.128 187,234.5C 190.562,228.988 195.396,225.322 201.5,223.5 Z M 201.5,233.5 C 194.617,237.435 192.783,243.102 196,250.5C 203.491,257.583 210.157,256.916 216,248.5C 217.317,237.796 212.483,232.796 201.5,233.5 Z"/></g>
<g><path style="opacity:0.868" fill="#fefffe" d="M 265.5,233.5 C 274.506,233.334 283.506,233.5 292.5,234C 295.966,236.661 296.299,239.661 293.5,243C 284.167,243.667 274.833,243.667 265.5,243C 261.562,239.887 261.562,236.72 265.5,233.5 Z"/></g>
<g><path style="opacity:0.905" fill="#fefffe" d="M 306.5,289.5 C 328.169,289.333 349.836,289.5 371.5,290C 375.165,291.668 377.332,294.501 378,298.5C 378.667,324.833 378.667,351.167 378,377.5C 377.009,380.66 375.176,383.16 372.5,385C 350.167,385.667 327.833,385.667 305.5,385C 303.667,383.833 302.167,382.333 301,380.5C 300.333,352.167 300.333,323.833 301,295.5C 302.699,293.304 304.533,291.304 306.5,289.5 Z M 309.5,299.5 C 329.167,299.5 348.833,299.5 368.5,299.5C 368.5,303.833 368.5,308.167 368.5,312.5C 348.833,312.5 329.167,312.5 309.5,312.5C 309.5,308.167 309.5,303.833 309.5,299.5 Z M 309.5,321.5 C 329.167,321.5 348.833,321.5 368.5,321.5C 368.667,339.503 368.5,357.503 368,375.5C 358.408,376.161 348.741,376.494 339,376.5C 329.259,376.494 319.592,376.161 310,375.5C 309.5,357.503 309.333,339.503 309.5,321.5 Z"/></g>
<g><path style="opacity:0.897" fill="#fefffe" d="M 190.5,303.5 C 193.044,303.104 195.211,303.771 197,305.5C 197.333,323.167 197.667,340.833 198,358.5C 200.706,368.539 207.206,374.372 217.5,376C 242.833,376.333 268.167,376.667 293.5,377C 295.536,379.299 295.869,381.799 294.5,384.5C 266.506,385.667 238.506,385.833 210.5,385C 199.564,381.065 192.397,373.565 189,362.5C 188.833,352.833 188.667,343.167 188.5,333.5C 188.525,323.272 189.192,313.272 190.5,303.5 Z"/></g>
<g><path style="opacity:0.833" fill="#fefffe" d="M 217.5,306.5 C 220.898,306.18 224.232,306.513 227.5,307.5C 230.102,313.321 228.269,316.321 222,316.5C 215.236,315.658 213.736,312.325 217.5,306.5 Z"/></g>
<g><path style="opacity:0.869" fill="#fefffe" d="M 236.5,306.5 C 253.837,306.333 271.17,306.5 288.5,307C 291.311,310.294 290.978,313.294 287.5,316C 270.833,316.667 254.167,316.667 237.5,316C 234.03,313.112 233.696,309.946 236.5,306.5 Z"/></g>
<g><path style="opacity:0.834" fill="#fefffe" d="M 217.5,321.5 C 220.579,321.26 223.579,321.593 226.5,322.5C 228.65,324.922 228.983,327.589 227.5,330.5C 223.833,331.833 220.167,331.833 216.5,330.5C 215.137,327.313 215.471,324.313 217.5,321.5 Z"/></g>
<g><path style="opacity:0.869" fill="#fefffe" d="M 237.5,321.5 C 254.17,321.333 270.837,321.5 287.5,322C 290.978,324.706 291.311,327.706 288.5,331C 271.167,331.667 253.833,331.667 236.5,331C 233.765,327.508 234.098,324.342 237.5,321.5 Z"/></g>
<g><path style="opacity:0.764" fill="#fefffe" d="M 314.5,328.5 C 317.85,328.335 321.183,328.502 324.5,329C 328.5,332 328.5,335 324.5,338C 321.167,338.667 317.833,338.667 314.5,338C 311.875,334.763 311.875,331.596 314.5,328.5 Z"/></g>
<g><path style="opacity:0.761" fill="#fefffe" d="M 333.5,328.5 C 337.226,328.177 340.893,328.511 344.5,329.5C 347.847,335.782 345.847,338.782 338.5,338.5C 331.498,337.822 329.832,334.489 333.5,328.5 Z"/></g>
<g><path style="opacity:0.762" fill="#fefffe" d="M 353.5,328.5 C 356.85,328.335 360.183,328.502 363.5,329C 367.5,332 367.5,335 363.5,338C 359.789,338.825 356.122,338.659 352.5,337.5C 350.992,334.231 351.325,331.231 353.5,328.5 Z"/></g>
<g><path style="opacity:0.845" fill="#fefffe" d="M 217.5,337.5 C 220.978,337.184 224.312,337.684 227.5,339C 230.03,344.636 228.196,347.469 222,347.5C 215.236,346.658 213.736,343.325 217.5,337.5 Z"/></g>
<g><path style="opacity:0.857" fill="#fefffe" d="M 237.5,337.5 C 247.839,337.334 258.172,337.5 268.5,338C 272.701,341.523 272.368,344.523 267.5,347C 257.5,347.667 247.5,347.667 237.5,347C 233.581,343.84 233.581,340.673 237.5,337.5 Z"/></g>
<g><path style="opacity:0.848" fill="#fefffe" d="M 314.5,344.5 C 317.85,344.335 321.183,344.502 324.5,345C 327.722,346.99 328.222,349.49 326,352.5C 321.882,353.798 317.715,353.798 313.5,352.5C 312.025,349.557 312.358,346.891 314.5,344.5 Z"/></g>
<g><path style="opacity:0.823" fill="#fefffe" d="M 333.5,344.5 C 337.182,344.335 340.848,344.501 344.5,345C 346.706,347.209 347.04,349.709 345.5,352.5C 341.541,353.66 337.541,353.827 333.5,353C 331.047,350.251 331.047,347.417 333.5,344.5 Z"/></g>
<g><path style="opacity:0.843" fill="#fefffe" d="M 353.5,344.5 C 356.85,344.335 360.183,344.502 363.5,345C 366.352,347.153 366.852,349.653 365,352.5C 360.921,353.629 356.755,353.796 352.5,353C 351.041,349.929 351.374,347.096 353.5,344.5 Z"/></g>
<g><path style="opacity:0.842" fill="#fefffe" d="M 313.5,360.5 C 317.514,360.334 321.514,360.501 325.5,361C 328.353,364.096 328.02,366.763 324.5,369C 321.167,369.667 317.833,369.667 314.5,369C 312.162,366.458 311.828,363.625 313.5,360.5 Z"/></g>
<g><path style="opacity:0.831" fill="#fefffe" d="M 333.5,360.5 C 337.555,360.176 341.555,360.509 345.5,361.5C 347.04,364.291 346.706,366.791 344.5,369C 340.833,369.667 337.167,369.667 333.5,369C 330.939,366.177 330.939,363.343 333.5,360.5 Z"/></g>
<g><path style="opacity:0.84" fill="#fefffe" d="M 352.5,360.5 C 356.514,360.334 360.514,360.501 364.5,361C 367.031,363.966 366.697,366.633 363.5,369C 360.167,369.667 356.833,369.667 353.5,369C 351.162,366.458 350.828,363.625 352.5,360.5 Z"/></g>
</svg>
