<?xml version="1.0" encoding="UTF-8"?>
<!DOCTYPE svg PUBLIC "-//W3C//DTD SVG 1.1//EN" "http://www.w3.org/Graphics/SVG/1.1/DTD/svg11.dtd">
<svg xmlns="http://www.w3.org/2000/svg" version="1.1" width="512px" height="512px" style="shape-rendering:geometricPrecision; text-rendering:geometricPrecision; image-rendering:optimizeQuality; fill-rule:evenodd; clip-rule:evenodd" xmlns:xlink="http://www.w3.org/1999/xlink">
<g><path style="opacity:0.893" fill="#fefffe" d="M 182.5,107.5 C 202.024,109.17 210.69,119.837 208.5,139.5C 240.833,139.5 273.167,139.5 305.5,139.5C 302.526,120.848 310.192,110.181 328.5,107.5C 340.305,108.141 347.805,114.141 351,125.5C 351.499,130.155 351.666,134.821 351.5,139.5C 358.175,139.334 364.842,139.5 371.5,140C 387.282,142.689 397.116,151.856 401,167.5C 401.667,236.833 401.667,306.167 401,375.5C 397.539,390.294 388.373,399.461 373.5,403C 294.833,403.667 216.167,403.667 137.5,403C 122.652,399.44 113.486,390.273 110,375.5C 109.333,315.167 109.333,254.833 110,194.5C 112.269,191.946 114.602,191.946 117,194.5C 117.499,200.157 117.666,205.824 117.5,211.5C 209.5,211.5 301.5,211.5 393.5,211.5C 393.876,196.46 393.376,181.46 392,166.5C 389.138,159.281 384.304,153.781 377.5,150C 368.902,148.624 360.235,148.124 351.5,148.5C 351.945,156.119 351.278,163.619 349.5,171C 340.251,184.229 328.584,186.896 314.5,179C 310.261,175.35 307.428,170.85 306,165.5C 305.501,159.843 305.334,154.176 305.5,148.5C 273.167,148.5 240.833,148.5 208.5,148.5C 211.725,163.22 207.058,174.386 194.5,182C 182.391,185.685 172.557,182.518 165,172.5C 161.995,164.781 160.829,156.781 161.5,148.5C 152.418,148.086 143.418,148.586 134.5,150C 129.492,151.836 125.492,155.003 122.5,159.5C 120.004,163.837 118.004,168.337 116.5,173C 112.819,174.314 110.486,173.147 109.5,169.5C 111.402,159.432 116.402,151.266 124.5,145C 129.102,142.133 134.102,140.466 139.5,140C 146.826,139.5 154.159,139.334 161.5,139.5C 159.883,122.843 166.883,112.176 182.5,107.5 Z M 181.5,116.5 C 189.906,115.613 195.739,118.946 199,126.5C 199.667,139.167 199.667,151.833 199,164.5C 194.928,173.751 188.095,176.585 178.5,173C 175.238,170.408 172.738,167.241 171,163.5C 170.333,151.5 170.333,139.5 171,127.5C 173.075,122.262 176.575,118.596 181.5,116.5 Z M 324.5,116.5 C 332.498,115.644 338.331,118.644 342,125.5C 342.667,138.5 342.667,151.5 342,164.5C 335.965,175.529 327.798,177.362 317.5,170C 316.33,167.815 315.164,165.649 314,163.5C 313.333,151.5 313.333,139.5 314,127.5C 315.684,121.984 319.184,118.318 324.5,116.5 Z M 117.5,221.5 C 209.5,221.5 301.5,221.5 393.5,221.5C 393.667,270.834 393.5,320.168 393,369.5C 391.227,384.607 382.727,393.107 367.5,395C 292.833,395.667 218.167,395.667 143.5,395C 128.273,393.107 119.773,384.607 118,369.5C 117.5,320.168 117.333,270.834 117.5,221.5 Z M 281.5,251.5 C 311.032,251.179 340.532,251.512 370,252.5C 374.041,254.731 375.375,258.065 374,262.5C 373.803,260.139 372.636,258.472 370.5,257.5C 357.513,256.334 344.513,256.167 331.5,257C 329.951,258.214 328.785,259.714 328,261.5C 327.333,269.167 327.333,276.833 328,284.5C 328.833,286.667 330.333,288.167 332.5,289C 344.833,289.667 357.167,289.667 369.5,289C 371.734,287.766 373.234,285.933 374,283.5C 374.499,287.821 374.666,292.154 374.5,296.5C 341.5,296.5 308.5,296.5 275.5,296.5C 275.333,284.162 275.5,271.829 276,259.5C 276.625,255.891 278.458,253.224 281.5,251.5 Z M 132.5,256.5 C 136.514,256.334 140.514,256.501 144.5,257C 145.833,261.333 145.833,265.667 144.5,270C 140.179,270.499 135.846,270.666 131.5,270.5C 131.226,265.737 131.559,261.07 132.5,256.5 Z M 163.5,256.5 C 167.514,256.334 171.514,256.501 175.5,257C 176.833,261.333 176.833,265.667 175.5,270C 171.179,270.499 166.846,270.666 162.5,270.5C 162.226,265.737 162.559,261.07 163.5,256.5 Z M 194.5,256.5 C 198.767,256.203 202.934,256.536 207,257.5C 207.499,261.821 207.666,266.154 207.5,270.5C 202.833,270.5 198.167,270.5 193.5,270.5C 193.226,265.737 193.559,261.07 194.5,256.5 Z M 225.5,256.5 C 229.767,256.203 233.934,256.536 238,257.5C 238.499,261.821 238.666,266.154 238.5,270.5C 233.833,270.5 229.167,270.5 224.5,270.5C 224.226,265.737 224.559,261.07 225.5,256.5 Z M 284.5,264.5 C 294.5,264.5 304.5,264.5 314.5,264.5C 314.5,269.833 314.5,275.167 314.5,280.5C 304.5,280.5 294.5,280.5 284.5,280.5C 284.5,275.167 284.5,269.833 284.5,264.5 Z M 336.5,264.5 C 346.167,264.5 355.833,264.5 365.5,264.5C 365.5,269.833 365.5,275.167 365.5,280.5C 355.833,280.5 346.167,280.5 336.5,280.5C 336.5,275.167 336.5,269.833 336.5,264.5 Z M 132.5,287.5 C 136.514,287.334 140.514,287.501 144.5,288C 145.833,292.333 145.833,296.667 144.5,301C 140.179,301.499 135.846,301.666 131.5,301.5C 131.226,296.737 131.559,292.07 132.5,287.5 Z M 275.5,305.5 C 308.5,305.5 341.5,305.5 374.5,305.5C 374.667,322.837 374.5,340.17 374,357.5C 372.833,358.667 371.667,359.833 370.5,361C 339.928,361.829 309.428,361.662 279,360.5C 277.47,358.774 276.47,356.774 276,354.5C 275.5,338.17 275.333,321.837 275.5,305.5 Z M 132.5,318.5 C 136.514,318.334 140.514,318.501 144.5,319C 145.833,323.333 145.833,327.667 144.5,332C 140.179,332.499 135.846,332.666 131.5,332.5C 131.226,327.737 131.559,323.07 132.5,318.5 Z M 163.5,318.5 C 167.514,318.334 171.514,318.501 175.5,319C 176.833,323.333 176.833,327.667 175.5,332C 171.179,332.499 166.846,332.666 162.5,332.5C 162.226,327.737 162.559,323.07 163.5,318.5 Z M 194.5,318.5 C 198.767,318.203 202.934,318.536 207,319.5C 207.499,323.821 207.666,328.154 207.5,332.5C 202.833,332.5 198.167,332.5 193.5,332.5C 193.226,327.737 193.559,323.07 194.5,318.5 Z M 225.5,318.5 C 229.767,318.203 233.934,318.536 238,319.5C 238.499,323.821 238.666,328.154 238.5,332.5C 233.833,332.5 229.167,332.5 224.5,332.5C 224.226,327.737 224.559,323.07 225.5,318.5 Z M 132.5,349.5 C 136.514,349.334 140.514,349.501 144.5,350C 145.833,354.333 145.833,358.667 144.5,363C 140.179,363.499 135.846,363.666 131.5,363.5C 131.226,358.737 131.559,354.07 132.5,349.5 Z M 163.5,349.5 C 167.514,349.334 171.514,349.501 175.5,350C 176.833,354.333 176.833,358.667 175.5,363C 171.179,363.499 166.846,363.666 162.5,363.5C 162.226,358.737 162.559,354.07 163.5,349.5 Z M 194.5,349.5 C 198.767,349.203 202.934,349.536 207,350.5C 207.499,354.821 207.666,359.154 207.5,363.5C 202.833,363.5 198.167,363.5 193.5,363.5C 193.226,358.737 193.559,354.07 194.5,349.5 Z M 225.5,349.5 C 229.767,349.203 233.934,349.536 238,350.5C 238.499,354.821 238.666,359.154 238.5,363.5C 233.833,363.5 229.167,363.5 224.5,363.5C 224.226,358.737 224.559,354.07 225.5,349.5 Z"/></g>
<g><path style="opacity:0.848" fill="#fefffe" d="M 112.5,175.5 C 114.17,175.751 115.67,176.418 117,177.5C 117.499,181.486 117.666,185.486 117.5,189.5C 114.881,189.768 112.381,189.435 110,188.5C 109.333,184.833 109.333,181.167 110,177.5C 110.995,176.934 111.828,176.267 112.5,175.5 Z"/></g>
<g><path style="opacity:0.88" fill="#fefffe" d="M 277.5,243.5 C 309.502,243.333 341.502,243.5 373.5,244C 378.551,246.72 381.718,250.887 383,256.5C 383.667,290.167 383.667,323.833 383,357.5C 381.204,363.626 377.371,367.793 371.5,370C 340.833,370.667 310.167,370.667 279.5,370C 274.09,368.257 270.256,364.757 268,359.5C 267.333,324.5 267.333,289.5 268,254.5C 269.97,249.704 273.137,246.037 277.5,243.5 Z M 281.5,251.5 C 278.458,253.224 276.625,255.891 276,259.5C 275.5,271.829 275.333,284.162 275.5,296.5C 308.5,296.5 341.5,296.5 374.5,296.5C 374.666,292.154 374.499,287.821 374,283.5C 373.234,285.933 371.734,287.766 369.5,289C 357.167,289.667 344.833,289.667 332.5,289C 330.333,288.167 328.833,286.667 328,284.5C 327.333,276.833 327.333,269.167 328,261.5C 328.785,259.714 329.951,258.214 331.5,257C 344.513,256.167 357.513,256.334 370.5,257.5C 372.636,258.472 373.803,260.139 374,262.5C 375.375,258.065 374.041,254.731 370,252.5C 340.532,251.512 311.032,251.179 281.5,251.5 Z M 284.5,264.5 C 284.5,269.833 284.5,275.167 284.5,280.5C 294.5,280.5 304.5,280.5 314.5,280.5C 314.5,275.167 314.5,269.833 314.5,264.5C 304.5,264.5 294.5,264.5 284.5,264.5 Z M 336.5,264.5 C 336.5,269.833 336.5,275.167 336.5,280.5C 346.167,280.5 355.833,280.5 365.5,280.5C 365.5,275.167 365.5,269.833 365.5,264.5C 355.833,264.5 346.167,264.5 336.5,264.5 Z M 275.5,305.5 C 275.333,321.837 275.5,338.17 276,354.5C 276.47,356.774 277.47,358.774 279,360.5C 309.428,361.662 339.928,361.829 370.5,361C 371.667,359.833 372.833,358.667 374,357.5C 374.5,340.17 374.667,322.837 374.5,305.5C 341.5,305.5 308.5,305.5 275.5,305.5 Z"/></g>
<g><path style="opacity:0.915" fill="#fefffe" d="M 128.5,248.5 C 135.175,248.334 141.842,248.5 148.5,249C 149.931,249.465 151.097,250.299 152,251.5C 153.594,258.726 153.928,266.06 153,273.5C 151.64,275.105 150.14,276.605 148.5,278C 141.5,278.667 134.5,278.667 127.5,278C 126.333,276.833 125.167,275.667 124,274.5C 123.333,267.167 123.333,259.833 124,252.5C 125.397,250.93 126.897,249.596 128.5,248.5 Z M 132.5,256.5 C 131.559,261.07 131.226,265.737 131.5,270.5C 135.846,270.666 140.179,270.499 144.5,270C 145.833,265.667 145.833,261.333 144.5,257C 140.514,256.501 136.514,256.334 132.5,256.5 Z"/></g>
<g><path style="opacity:0.916" fill="#fefffe" d="M 159.5,248.5 C 166.175,248.334 172.842,248.5 179.5,249C 180.931,249.465 182.097,250.299 183,251.5C 184.594,258.726 184.928,266.06 184,273.5C 183.07,275.552 181.57,277.052 179.5,278C 172.833,278.667 166.167,278.667 159.5,278C 157.714,277.215 156.214,276.049 155,274.5C 154.333,267.167 154.333,259.833 155,252.5C 156.397,250.93 157.897,249.596 159.5,248.5 Z M 163.5,256.5 C 162.559,261.07 162.226,265.737 162.5,270.5C 166.846,270.666 171.179,270.499 175.5,270C 176.833,265.667 176.833,261.333 175.5,257C 171.514,256.501 167.514,256.334 163.5,256.5 Z"/></g>
<g><path style="opacity:0.927" fill="#fefffe" d="M 190.5,248.5 C 197.175,248.334 203.842,248.5 210.5,249C 211.931,249.465 213.097,250.299 214,251.5C 215.594,258.726 215.928,266.06 215,273.5C 214.535,274.931 213.701,276.097 212.5,277C 205.274,278.594 197.94,278.928 190.5,278C 188.714,277.215 187.214,276.049 186,274.5C 185.333,267.167 185.333,259.833 186,252.5C 187.397,250.93 188.897,249.596 190.5,248.5 Z M 194.5,256.5 C 193.559,261.07 193.226,265.737 193.5,270.5C 198.167,270.5 202.833,270.5 207.5,270.5C 207.666,266.154 207.499,261.821 207,257.5C 202.934,256.536 198.767,256.203 194.5,256.5 Z"/></g>
<g><path style="opacity:0.928" fill="#fefffe" d="M 221.5,248.5 C 228.175,248.334 234.842,248.5 241.5,249C 242.931,249.465 244.097,250.299 245,251.5C 246.594,258.726 246.928,266.06 246,273.5C 245.535,274.931 244.701,276.097 243.5,277C 236.274,278.594 228.94,278.928 221.5,278C 219.714,277.215 218.214,276.049 217,274.5C 216.333,267.167 216.333,259.833 217,252.5C 218.397,250.93 219.897,249.596 221.5,248.5 Z M 225.5,256.5 C 224.559,261.07 224.226,265.737 224.5,270.5C 229.167,270.5 233.833,270.5 238.5,270.5C 238.666,266.154 238.499,261.821 238,257.5C 233.934,256.536 229.767,256.203 225.5,256.5 Z"/></g>
<g><path style="opacity:0.919" fill="#fefffe" d="M 280.5,256.5 C 293.171,256.333 305.838,256.5 318.5,257C 319.354,258.022 320.354,258.855 321.5,259.5C 322.665,268.147 322.832,276.814 322,285.5C 321.021,287.32 319.521,288.487 317.5,289C 305.167,289.667 292.833,289.667 280.5,289C 279.333,287.833 278.167,286.667 277,285.5C 276.333,277.5 276.333,269.5 277,261.5C 277.257,259.093 278.424,257.427 280.5,256.5 Z M 284.5,264.5 C 284.5,269.833 284.5,275.167 284.5,280.5C 294.5,280.5 304.5,280.5 314.5,280.5C 314.5,275.167 314.5,269.833 314.5,264.5C 304.5,264.5 294.5,264.5 284.5,264.5 Z"/></g>
<g><path style="opacity:0.918" fill="#fefffe" d="M 128.5,279.5 C 135.175,279.334 141.842,279.5 148.5,280C 149.931,280.465 151.097,281.299 152,282.5C 159.571,305.256 151.738,314.089 128.5,309C 126.714,308.215 125.214,307.049 124,305.5C 123.333,298.167 123.333,290.833 124,283.5C 125.397,281.93 126.897,280.596 128.5,279.5 Z M 132.5,287.5 C 131.559,292.07 131.226,296.737 131.5,301.5C 135.846,301.666 140.179,301.499 144.5,301C 145.833,296.667 145.833,292.333 144.5,288C 140.514,287.501 136.514,287.334 132.5,287.5 Z"/></g>
<g><path style="opacity:0.948" fill="#fefffe" d="M 159.5,279.5 C 166.175,279.334 172.842,279.5 179.5,280C 180.931,280.465 182.097,281.299 183,282.5C 190.902,305.579 183.068,314.412 159.5,309C 157.714,308.215 156.214,307.049 155,305.5C 154.333,298.167 154.333,290.833 155,283.5C 156.397,281.93 157.897,280.596 159.5,279.5 Z"/></g>
<g><path style="opacity:0.953" fill="#fefffe" d="M 190.5,279.5 C 197.175,279.334 203.842,279.5 210.5,280C 211.931,280.465 213.097,281.299 214,282.5C 221.902,305.579 214.068,314.412 190.5,309C 188.714,308.215 187.214,307.049 186,305.5C 185.333,298.167 185.333,290.833 186,283.5C 187.397,281.93 188.897,280.596 190.5,279.5 Z"/></g>
<g><path style="opacity:0.953" fill="#fefffe" d="M 221.5,279.5 C 228.175,279.334 234.842,279.5 241.5,280C 242.931,280.465 244.097,281.299 245,282.5C 246.594,289.726 246.928,297.06 246,304.5C 245.535,305.931 244.701,307.097 243.5,308C 236.274,309.594 228.94,309.928 221.5,309C 219.714,308.215 218.214,307.049 217,305.5C 216.333,298.167 216.333,290.833 217,283.5C 218.397,281.93 219.897,280.596 221.5,279.5 Z"/></g>
<g><path style="opacity:0.917" fill="#fefffe" d="M 128.5,310.5 C 135.175,310.334 141.842,310.5 148.5,311C 149.931,311.465 151.097,312.299 152,313.5C 159.902,336.579 152.068,345.412 128.5,340C 126.714,339.215 125.214,338.049 124,336.5C 123.333,329.167 123.333,321.833 124,314.5C 125.397,312.93 126.897,311.596 128.5,310.5 Z M 132.5,318.5 C 131.559,323.07 131.226,327.737 131.5,332.5C 135.846,332.666 140.179,332.499 144.5,332C 145.833,327.667 145.833,323.333 144.5,319C 140.514,318.501 136.514,318.334 132.5,318.5 Z"/></g>
<g><path style="opacity:0.917" fill="#fefffe" d="M 159.5,310.5 C 166.175,310.334 172.842,310.5 179.5,311C 180.931,311.465 182.097,312.299 183,313.5C 190.902,336.579 183.068,345.412 159.5,340C 157.714,339.215 156.214,338.049 155,336.5C 154.333,329.167 154.333,321.833 155,314.5C 156.397,312.93 157.897,311.596 159.5,310.5 Z M 163.5,318.5 C 162.559,323.07 162.226,327.737 162.5,332.5C 166.846,332.666 171.179,332.499 175.5,332C 176.833,327.667 176.833,323.333 175.5,319C 171.514,318.501 167.514,318.334 163.5,318.5 Z"/></g>
<g><path style="opacity:0.929" fill="#fefffe" d="M 190.5,310.5 C 197.175,310.334 203.842,310.5 210.5,311C 211.931,311.465 213.097,312.299 214,313.5C 221.902,336.579 214.068,345.412 190.5,340C 188.714,339.215 187.214,338.049 186,336.5C 185.333,329.167 185.333,321.833 186,314.5C 187.397,312.93 188.897,311.596 190.5,310.5 Z M 194.5,318.5 C 193.559,323.07 193.226,327.737 193.5,332.5C 198.167,332.5 202.833,332.5 207.5,332.5C 207.666,328.154 207.499,323.821 207,319.5C 202.934,318.536 198.767,318.203 194.5,318.5 Z"/></g>
<g><path style="opacity:0.931" fill="#fefffe" d="M 221.5,310.5 C 228.175,310.334 234.842,310.5 241.5,311C 242.931,311.465 244.097,312.299 245,313.5C 252.902,336.579 245.068,345.412 221.5,340C 219.714,339.215 218.214,338.049 217,336.5C 216.333,329.167 216.333,321.833 217,314.5C 218.397,312.93 219.897,311.596 221.5,310.5 Z M 225.5,318.5 C 224.559,323.07 224.226,327.737 224.5,332.5C 229.167,332.5 233.833,332.5 238.5,332.5C 238.666,328.154 238.499,323.821 238,319.5C 233.934,318.536 229.767,318.203 225.5,318.5 Z"/></g>
<g><path style="opacity:0.917" fill="#fefffe" d="M 127.5,341.5 C 134.508,341.334 141.508,341.5 148.5,342C 152.952,345.911 154.618,350.911 153.5,357C 153.333,360.167 153.167,363.333 153,366.5C 152.535,367.931 151.701,369.097 150.5,370C 143.274,371.594 135.94,371.928 128.5,371C 126.714,370.215 125.214,369.049 124,367.5C 123.333,360.167 123.333,352.833 124,345.5C 125.376,344.295 126.542,342.962 127.5,341.5 Z M 132.5,349.5 C 131.559,354.07 131.226,358.737 131.5,363.5C 135.846,363.666 140.179,363.499 144.5,363C 145.833,358.667 145.833,354.333 144.5,350C 140.514,349.501 136.514,349.334 132.5,349.5 Z"/></g>
<g><path style="opacity:0.917" fill="#fefffe" d="M 159.5,341.5 C 166.175,341.334 172.842,341.5 179.5,342C 180.579,342.956 181.745,343.789 183,344.5C 190.902,367.579 183.068,376.412 159.5,371C 157.714,370.215 156.214,369.049 155,367.5C 154.333,360.167 154.333,352.833 155,345.5C 156.397,343.93 157.897,342.596 159.5,341.5 Z M 163.5,349.5 C 162.559,354.07 162.226,358.737 162.5,363.5C 166.846,363.666 171.179,363.499 175.5,363C 176.833,358.667 176.833,354.333 175.5,350C 171.514,349.501 167.514,349.334 163.5,349.5 Z"/></g>
<g><path style="opacity:0.928" fill="#fefffe" d="M 190.5,341.5 C 197.175,341.334 203.842,341.5 210.5,342C 211.931,342.465 213.097,343.299 214,344.5C 221.902,367.579 214.068,376.412 190.5,371C 188.714,370.215 187.214,369.049 186,367.5C 185.333,360.167 185.333,352.833 186,345.5C 187.397,343.93 188.897,342.596 190.5,341.5 Z M 194.5,349.5 C 193.559,354.07 193.226,358.737 193.5,363.5C 198.167,363.5 202.833,363.5 207.5,363.5C 207.666,359.154 207.499,354.821 207,350.5C 202.934,349.536 198.767,349.203 194.5,349.5 Z"/></g>
<g><path style="opacity:0.931" fill="#fefffe" d="M 221.5,341.5 C 228.175,341.334 234.842,341.5 241.5,342C 242.931,342.465 244.097,343.299 245,344.5C 252.902,367.579 245.068,376.412 221.5,371C 219.714,370.215 218.214,369.049 217,367.5C 216.575,360.13 216.409,352.963 216.5,346C 218.063,344.264 219.73,342.764 221.5,341.5 Z M 225.5,349.5 C 224.559,354.07 224.226,358.737 224.5,363.5C 229.167,363.5 233.833,363.5 238.5,363.5C 238.666,359.154 238.499,354.821 238,350.5C 233.934,349.536 229.767,349.203 225.5,349.5 Z"/></g>
</svg>
