<?xml version="1.0" encoding="UTF-8"?>
<!DOCTYPE svg PUBLIC "-//W3C//DTD SVG 1.1//EN" "http://www.w3.org/Graphics/SVG/1.1/DTD/svg11.dtd">
<svg xmlns="http://www.w3.org/2000/svg" version="1.1" width="512px" height="512px" style="shape-rendering:geometricPrecision; text-rendering:geometricPrecision; image-rendering:optimizeQuality; fill-rule:evenodd; clip-rule:evenodd" xmlns:xlink="http://www.w3.org/1999/xlink">
<g><path style="opacity:0.943" fill="#fefffe" d="M 323.5,92.5 C 334.219,90.0881 342.886,93.0881 349.5,101.5C 357.94,101.918 364.273,105.751 368.5,113C 380.89,113.082 393.223,113.749 405.5,115C 410.41,118.241 414.244,122.407 417,127.5C 417.667,212.5 417.667,297.5 417,382.5C 413.68,389.155 408.514,393.655 401.5,396C 354.5,396.667 307.5,396.667 260.5,396C 249.465,393.127 243.798,385.96 243.5,374.5C 225.833,374.5 208.167,374.5 190.5,374.5C 190.666,382.507 190.5,390.507 190,398.5C 187.317,406.517 182.15,412.351 174.5,416C 160.569,417.614 146.569,417.947 132.5,417C 122.864,413.361 116.697,406.528 114,396.5C 113.831,389.144 113.331,381.811 112.5,374.5C 102.867,371.367 96.3671,365.034 93,355.5C 92.3333,320.833 92.3333,286.167 93,251.5C 97.2418,240.927 104.908,234.26 116,231.5C 117.167,229 118.333,226.5 119.5,224C 99.7519,223.323 93.4185,213.823 100.5,195.5C 102.69,193.476 105.023,191.643 107.5,190C 116.5,189.667 125.5,189.333 134.5,189C 140.76,175.985 146.593,162.818 152,149.5C 156.026,143.135 161.526,138.635 168.5,136C 193.498,135.5 218.498,135.333 243.5,135.5C 243.53,125.877 247.863,119.044 256.5,115C 268.792,113.914 281.125,113.081 293.5,112.5C 297.299,105.386 303.299,101.886 311.5,102C 314.536,97.4475 318.536,94.2808 323.5,92.5 Z M 327.5,104.5 C 330.187,104.336 332.854,104.503 335.5,105C 337.833,108 340.167,111 342.5,114C 346.381,115.19 350.381,115.857 354.5,116C 358.382,119.608 357.716,122.275 352.5,124C 337.074,124.968 321.741,124.634 306.5,123C 303.833,120.667 303.833,118.333 306.5,116C 311.022,115.951 315.356,115.118 319.5,113.5C 321.5,109.78 324.166,106.78 327.5,104.5 Z M 263.5,125.5 C 273.522,125.168 283.522,125.501 293.5,126.5C 295.762,130.797 299.095,133.964 303.5,136C 321.833,136.667 340.167,136.667 358.5,136C 363.167,134 366.5,130.667 368.5,126C 378.5,125.333 388.5,125.333 398.5,126C 400.609,127.141 402.442,128.641 404,130.5C 405.661,212.752 405.994,295.085 405,377.5C 403.5,380.333 401.333,382.5 398.5,384C 353.5,384.667 308.5,384.667 263.5,384C 258.656,382.159 256.156,378.659 256,373.5C 255.333,294.5 255.333,215.5 256,136.5C 256.362,131.316 258.862,127.649 263.5,125.5 Z M 174.5,147.5 C 197.5,147.5 220.5,147.5 243.5,147.5C 243.5,175.833 243.5,204.167 243.5,232.5C 205.494,232.833 167.494,232.5 129.5,231.5C 140.934,206.728 152.101,181.728 163,156.5C 165.692,151.919 169.525,148.919 174.5,147.5 Z M 113.5,201.5 C 118.5,201.5 123.5,201.5 128.5,201.5C 127.578,204.126 126.578,206.793 125.5,209.5C 120.615,210.802 115.782,210.802 111,209.5C 109.205,206.075 110.039,203.408 113.5,201.5 Z M 118.5,244.5 C 160.167,244.5 201.833,244.5 243.5,244.5C 243.5,255.167 243.5,265.833 243.5,276.5C 227.163,276.333 210.83,276.5 194.5,277C 190,278.833 186.833,282 185,286.5C 184.5,297.495 184.333,308.495 184.5,319.5C 157.833,319.5 131.167,319.5 104.5,319.5C 104.522,297.792 104.522,276.292 104.5,255C 107.975,249.664 112.641,246.164 118.5,244.5 Z M 139.5,271.5 C 147.976,272.467 151.809,277.134 151,285.5C 148.338,290.163 144.338,292.497 139,292.5C 131.923,289.02 129.923,283.687 133,276.5C 134.965,274.45 137.132,272.783 139.5,271.5 Z M 199.5,288.5 C 214.167,288.5 228.833,288.5 243.5,288.5C 243.5,291.5 243.5,294.5 243.5,297.5C 227.833,297.5 212.167,297.5 196.5,297.5C 196.337,295.143 196.503,292.81 197,290.5C 197.995,289.934 198.828,289.267 199.5,288.5 Z M 196.5,310.5 C 212.167,310.5 227.833,310.5 243.5,310.5C 243.5,313.5 243.5,316.5 243.5,319.5C 227.833,319.5 212.167,319.5 196.5,319.5C 196.5,316.5 196.5,313.5 196.5,310.5 Z M 104.5,331.5 C 150.833,331.5 197.167,331.5 243.5,331.5C 243.5,334.5 243.5,337.5 243.5,340.5C 237.491,340.334 231.491,340.501 225.5,341C 220.167,345 220.167,349 225.5,353C 231.491,353.499 237.491,353.666 243.5,353.5C 243.5,356.5 243.5,359.5 243.5,362.5C 201.165,362.667 158.832,362.5 116.5,362C 110.988,360.488 106.988,357.155 104.5,352C 104.575,345.377 104.575,338.544 104.5,331.5 Z M 125.5,374.5 C 143.167,374.5 160.833,374.5 178.5,374.5C 178.848,381.906 178.348,389.239 177,396.5C 174.655,400.221 171.655,403.221 168,405.5C 158.038,405.615 147.871,405.448 137.5,405C 131.667,403.167 127.833,399.333 126,393.5C 125.5,387.175 125.334,380.842 125.5,374.5 Z"/></g>
<g><path style="opacity:0.901" fill="#fefffe" d="M 225.5,156.5 C 232.811,156.68 235.145,160.347 232.5,167.5C 211.411,185.014 190.078,202.014 168.5,218.5C 161.529,216.239 160.196,212.239 164.5,206.5C 184.877,189.78 205.21,173.113 225.5,156.5 Z"/></g>
<g><path style="opacity:0.858" fill="#fefffe" d="M 268.5,156.5 C 291.836,156.333 315.169,156.5 338.5,157C 343.833,161 343.833,165 338.5,169C 315.5,169.667 292.5,169.667 269.5,169C 266.617,168.131 265.284,166.131 265.5,163C 265.564,160.282 266.564,158.115 268.5,156.5 Z"/></g>
<g><path style="opacity:0.891" fill="#fefffe" d="M 387.5,156.5 C 395.44,156.369 397.94,160.035 395,167.5C 385.689,174.643 376.522,181.977 367.5,189.5C 364.894,190.652 362.227,190.818 359.5,190C 355.841,187.185 353.174,183.685 351.5,179.5C 351.716,175.004 354.049,173.004 358.5,173.5C 360.486,173.787 362.32,174.453 364,175.5C 372.316,169.676 380.149,163.342 387.5,156.5 Z"/></g>
<g><path style="opacity:0.932" fill="#fefffe" d="M 267.5,178.5 C 280.628,178.382 293.962,178.549 307.5,179C 311.5,182.667 311.5,186.333 307.5,190C 294.167,190.667 280.833,190.667 267.5,190C 264.875,186.168 264.875,182.335 267.5,178.5 Z"/></g>
<g><path style="opacity:0.859" fill="#fefffe" d="M 269.5,210.5 C 292.169,210.333 314.836,210.5 337.5,211C 343.309,214.05 343.975,218.05 339.5,223C 315.833,223.667 292.167,223.667 268.5,223C 265.515,220.057 264.848,216.557 266.5,212.5C 267.739,212.058 268.739,211.391 269.5,210.5 Z"/></g>
<g><path style="opacity:0.901" fill="#fefffe" d="M 388.5,210.5 C 396.332,210.858 398.499,214.525 395,221.5C 385.833,229 376.667,236.5 367.5,244C 359.501,244.871 354.167,241.371 351.5,233.5C 351.848,231.303 352.848,229.47 354.5,228C 358.328,227.554 361.994,227.887 365.5,229C 373.197,222.825 380.864,216.658 388.5,210.5 Z"/></g>
<g><path style="opacity:0.935" fill="#fefffe" d="M 268.5,232.5 C 281.171,232.333 293.838,232.5 306.5,233C 311.371,236.178 311.704,239.845 307.5,244C 294.167,244.667 280.833,244.667 267.5,244C 264.681,239.899 265.014,236.065 268.5,232.5 Z"/></g>
<g><path style="opacity:0.911" fill="#fefffe" d="M 137.5,259.5 C 153.312,258.888 161.978,266.388 163.5,282C 162.667,296.167 155.167,303.667 141,304.5C 127.514,303.014 120.014,295.514 118.5,282C 119.648,270.025 125.982,262.525 137.5,259.5 Z M 139.5,271.5 C 137.132,272.783 134.965,274.45 133,276.5C 129.923,283.687 131.923,289.02 139,292.5C 144.338,292.497 148.338,290.163 151,285.5C 151.809,277.134 147.976,272.467 139.5,271.5 Z"/></g>
<g><path style="opacity:0.952" fill="#fefffe" d="M 267.5,265.5 C 291.836,265.333 316.169,265.5 340.5,266C 343.314,269.936 342.981,273.603 339.5,277C 315.833,277.667 292.167,277.667 268.5,277C 264.92,273.442 264.587,269.609 267.5,265.5 Z"/></g>
<g><path style="opacity:0.894" fill="#fefffe" d="M 386.5,265.5 C 394.348,263.963 397.515,266.963 396,274.5C 386.122,283.046 375.956,291.213 365.5,299C 360.53,298.913 356.53,296.746 353.5,292.5C 350.006,284.324 352.673,280.824 361.5,282C 362.333,282.833 363.167,283.667 364,284.5C 371.691,278.302 379.191,271.969 386.5,265.5 Z"/></g>
<g><path style="opacity:0.852" fill="#fefffe" d="M 268.5,286.5 C 281.171,286.333 293.838,286.5 306.5,287C 311.899,291.423 311.565,295.423 305.5,299C 293.5,299.667 281.5,299.667 269.5,299C 266.617,298.131 265.284,296.131 265.5,293C 265.564,290.282 266.564,288.115 268.5,286.5 Z"/></g>
<g><path style="opacity:0.953" fill="#fefffe" d="M 267.5,319.5 C 291.502,319.333 315.502,319.5 339.5,320C 343.725,324.096 343.391,327.763 338.5,331C 314.794,331.478 291.294,331.645 268,331.5C 264.85,327.631 264.684,323.631 267.5,319.5 Z"/></g>
<g><path style="opacity:0.89" fill="#fefffe" d="M 386.5,319.5 C 395.936,318.53 398.603,322.363 394.5,331C 384.654,338.091 374.987,345.424 365.5,353C 363.833,353.667 362.167,353.667 360.5,353C 358.317,350.65 355.984,348.483 353.5,346.5C 350.027,339.139 352.36,335.639 360.5,336C 361.931,336.465 363.097,337.299 364,338.5C 371.735,332.25 379.235,325.916 386.5,319.5 Z"/></g>
<g><path style="opacity:0.848" fill="#fefffe" d="M 269.5,340.5 C 281.838,340.333 294.171,340.5 306.5,341C 311.833,345 311.833,349 306.5,353C 293.833,353.667 281.167,353.667 268.5,353C 265.515,350.057 264.848,346.557 266.5,342.5C 267.739,342.058 268.739,341.391 269.5,340.5 Z"/></g>
</svg>
