<?xml version="1.0" encoding="UTF-8"?>
<!DOCTYPE svg PUBLIC "-//W3C//DTD SVG 1.1//EN" "http://www.w3.org/Graphics/SVG/1.1/DTD/svg11.dtd">
<svg xmlns="http://www.w3.org/2000/svg" version="1.1" width="512px" height="512px" style="shape-rendering:geometricPrecision; text-rendering:geometricPrecision; image-rendering:optimizeQuality; fill-rule:evenodd; clip-rule:evenodd" xmlns:xlink="http://www.w3.org/1999/xlink">
<g><path style="opacity:0.91" fill="#fefffe" d="M 314.5,111.5 C 367.276,114.466 399.776,141.466 412,192.5C 415.828,220.045 409.995,245.212 394.5,268C 399.951,277.734 405.784,287.234 412,296.5C 414.51,304.326 411.677,307.493 403.5,306C 389.322,302.887 375.156,299.72 361,296.5C 338.984,306.601 316.151,308.934 292.5,303.5C 286.994,353.837 259.661,385.004 210.5,397C 194.056,398.819 178.056,397.486 162.5,393C 160.099,392.205 157.932,391.038 156,389.5C 155.667,389.833 155.333,390.167 155,390.5C 153.352,388.972 151.352,388.305 149,388.5C 133.212,391.593 117.712,394.926 102.5,398.5C 101.205,397.902 99.8721,397.402 98.5,397C 97.2126,393.875 97.2126,390.709 98.5,387.5C 104.302,377.867 110.302,368.367 116.5,359C 106.665,346.518 100.499,332.351 98,316.5C 93.2925,277.06 106.459,245.226 137.5,221C 162.039,204.854 188.706,200.02 217.5,206.5C 223.07,156.105 250.403,124.938 299.5,113C 304.684,112.826 309.684,112.326 314.5,111.5 Z M 313.5,123.5 C 350.637,124.473 377.471,141.473 394,174.5C 407.012,207.089 402.679,237.089 381,264.5C 380.333,266.5 380.333,268.5 381,270.5C 385.134,277.558 389.634,284.391 394.5,291C 384.24,289.537 374.073,287.371 364,284.5C 361.364,284.545 358.53,284.712 355.5,285C 334.952,295.078 313.618,296.911 291.5,290.5C 285.509,253.021 265.342,226.355 231,210.5C 230.916,181.272 242.416,157.772 265.5,140C 280.109,130.183 296.109,124.683 313.5,123.5 Z M 193.5,214.5 C 234.198,217.037 261.698,237.37 276,275.5C 286.319,323.272 269.819,358.105 226.5,380C 211.13,385.499 195.463,387.166 179.5,385C 169.592,382.531 159.925,379.364 150.5,375.5C 139.098,377.787 127.765,379.954 116.5,382C 120.047,375.066 124.213,368.566 129,362.5C 129.667,360.167 129.667,357.833 129,355.5C 105.981,326.216 102.314,294.882 118,261.5C 135.277,232.413 160.444,216.746 193.5,214.5 Z M 170.5,280.5 C 172.713,286.829 174.713,293.329 176.5,300C 172.848,300.499 169.182,300.665 165.5,300.5C 167.167,293.833 168.833,287.167 170.5,280.5 Z"/></g>
<g><path style="opacity:0.907" fill="#fefffe" d="M 274.5,173.5 C 302.167,173.5 329.833,173.5 357.5,173.5C 357.5,177.167 357.5,180.833 357.5,184.5C 329.833,184.5 302.167,184.5 274.5,184.5C 274.5,180.833 274.5,177.167 274.5,173.5 Z"/></g>
<g><path style="opacity:0.901" fill="#fefffe" d="M 274.5,203.5 C 302.167,203.5 329.833,203.5 357.5,203.5C 357.5,207.167 357.5,210.833 357.5,214.5C 329.833,214.5 302.167,214.5 274.5,214.5C 274.5,210.833 274.5,207.167 274.5,203.5 Z"/></g>
<g><path style="opacity:0.91" fill="#fefffe" d="M 295.5,234.5 C 316.167,234.5 336.833,234.5 357.5,234.5C 357.5,238.167 357.5,241.833 357.5,245.5C 336.833,245.5 316.167,245.5 295.5,245.5C 295.5,241.833 295.5,238.167 295.5,234.5 Z"/></g>
<g><path style="opacity:0.909" fill="#fefffe" d="M 162.5,269.5 C 168.206,269.171 173.872,269.505 179.5,270.5C 181.131,272.22 182.297,274.22 183,276.5C 187.529,294.473 192.363,312.64 197.5,331C 193.179,331.499 188.846,331.666 184.5,331.5C 183.215,325.079 181.548,318.746 179.5,312.5C 173.872,311.505 168.206,311.171 162.5,311.5C 161.047,318.216 159.38,324.882 157.5,331.5C 153.5,331.5 149.5,331.5 145.5,331.5C 147.466,321.442 150.133,311.608 153.5,302C 153.043,301.586 152.709,301.086 152.5,300.5C 155.566,291.676 158.066,282.676 160,273.5C 160.662,272.016 161.496,270.683 162.5,269.5 Z M 170.5,280.5 C 168.833,287.167 167.167,293.833 165.5,300.5C 169.182,300.665 172.848,300.499 176.5,300C 174.713,293.329 172.713,286.829 170.5,280.5 Z"/></g>
<g><path style="opacity:0.909" fill="#fefffe" d="M 205.5,269.5 C 217.833,269.5 230.167,269.5 242.5,269.5C 242.5,273.167 242.5,276.833 242.5,280.5C 238.5,280.5 234.5,280.5 230.5,280.5C 230.5,293.833 230.5,307.167 230.5,320.5C 234.5,320.5 238.5,320.5 242.5,320.5C 242.5,324.167 242.5,327.833 242.5,331.5C 230.167,331.5 217.833,331.5 205.5,331.5C 205.5,327.833 205.5,324.167 205.5,320.5C 209.833,320.5 214.167,320.5 218.5,320.5C 218.5,307.167 218.5,293.833 218.5,280.5C 214.167,280.5 209.833,280.5 205.5,280.5C 205.5,276.833 205.5,273.167 205.5,269.5 Z"/></g>
</svg>
