<?xml version="1.0" encoding="UTF-8"?>
<!DOCTYPE svg PUBLIC "-//W3C//DTD SVG 1.1//EN" "http://www.w3.org/Graphics/SVG/1.1/DTD/svg11.dtd">
<svg xmlns="http://www.w3.org/2000/svg" version="1.1" width="512px" height="512px" style="shape-rendering:geometricPrecision; text-rendering:geometricPrecision; image-rendering:optimizeQuality; fill-rule:evenodd; clip-rule:evenodd" xmlns:xlink="http://www.w3.org/1999/xlink">
<g><path style="opacity:1" fill="#fefffe" d="M 146.5,110.5 C 203.501,110.333 260.501,110.5 317.5,111C 323.159,111.996 326.993,115.162 329,120.5C 330.394,132.78 330.894,145.114 330.5,157.5C 344.171,157.333 357.837,157.5 371.5,158C 376.622,160.054 379.455,163.887 380,169.5C 380.988,226.225 380.654,282.891 379,339.5C 359.138,359.695 338.972,379.529 318.5,399C 276.107,399.983 233.774,399.65 191.5,398C 188.244,396.413 186.077,393.913 185,390.5C 184.5,378.171 184.333,365.838 184.5,353.5C 172.162,353.667 159.829,353.5 147.5,353C 141.531,351.702 137.365,348.202 135,342.5C 134.333,268.833 134.333,195.167 135,121.5C 137.412,116.252 141.246,112.586 146.5,110.5 Z M 146.5,119.5 C 203.501,119.333 260.501,119.5 317.5,120C 319,120.833 320.167,122 321,123.5C 321.5,134.828 321.667,146.162 321.5,157.5C 278.499,157.333 235.499,157.5 192.5,158C 189.829,159.25 187.663,161.083 186,163.5C 184.508,223.75 184.008,284.083 184.5,344.5C 171.829,344.667 159.162,344.5 146.5,344C 144.951,342.786 143.785,341.286 143,339.5C 142.333,267.833 142.333,196.167 143,124.5C 143.997,122.677 145.164,121.01 146.5,119.5 Z M 195.5,165.5 C 253.917,165.008 312.25,165.508 370.5,167C 371.498,222.095 371.831,277.262 371.5,332.5C 355.497,332.333 339.497,332.5 323.5,333C 319.934,333.7 317.1,335.533 315,338.5C 313.527,356.073 313.027,373.739 313.5,391.5C 274.499,391.667 235.499,391.5 196.5,391C 195.584,390.626 194.75,390.126 194,389.5C 192.34,315.915 192.006,242.248 193,168.5C 193.698,167.309 194.531,166.309 195.5,165.5 Z M 353.5,191.5 C 354.597,196.013 354.597,200.679 353.5,205.5C 306.167,205.5 258.833,205.5 211.5,205.5C 211.203,201.233 211.536,197.066 212.5,193C 259.668,192.833 306.668,192.333 353.5,191.5 Z M 324.5,340.5 C 338.171,340.333 351.837,340.5 365.5,341C 351,355.5 336.5,370 322,384.5C 321.333,370.833 321.333,357.167 322,343.5C 323.045,342.627 323.878,341.627 324.5,340.5 Z"/></g>
<g><path style="opacity:1" fill="#fefffe" d="M 209.5,183.5 C 258.501,183.333 307.501,183.5 356.5,184C 359.831,184.794 361.664,186.961 362,190.5C 362.667,196.167 362.667,201.833 362,207.5C 361.047,211.453 358.547,213.619 354.5,214C 306.833,214.667 259.167,214.667 211.5,214C 207.453,213.619 204.953,211.453 204,207.5C 202.874,199.955 203.54,192.621 206,185.5C 207.302,184.915 208.469,184.249 209.5,183.5 Z M 353.5,191.5 C 306.668,192.333 259.668,192.833 212.5,193C 211.536,197.066 211.203,201.233 211.5,205.5C 258.833,205.5 306.167,205.5 353.5,205.5C 354.597,200.679 354.597,196.013 353.5,191.5 Z"/></g>
<g><path style="opacity:1" fill="#fefffe" d="M 206.5,230.5 C 215.506,230.334 224.506,230.5 233.5,231C 236.551,232.36 237.218,234.527 235.5,237.5C 225.517,238.666 215.517,238.832 205.5,238C 202.86,235.11 203.194,232.61 206.5,230.5 Z"/></g>
<g><path style="opacity:1" fill="#fefffe" d="M 248.5,230.5 C 285.502,230.333 322.502,230.5 359.5,231C 362.955,232.903 363.288,235.237 360.5,238C 322.833,238.667 285.167,238.667 247.5,238C 246.046,235.216 246.379,232.716 248.5,230.5 Z"/></g>
<g><path style="opacity:1" fill="#fefffe" d="M 206.5,255.5 C 243.502,255.333 280.502,255.5 317.5,256C 319.418,257.77 319.918,259.937 319,262.5C 318.25,263.126 317.416,263.626 316.5,264C 279.833,264.667 243.167,264.667 206.5,264C 202.561,261.028 202.561,258.194 206.5,255.5 Z"/></g>
<g><path style="opacity:1" fill="#fefffe" d="M 331.5,255.5 C 341.172,255.334 350.839,255.5 360.5,256C 363.07,258.915 362.737,261.581 359.5,264C 350.5,264.667 341.5,264.667 332.5,264C 328.853,261.558 328.519,258.724 331.5,255.5 Z"/></g>
<g><path style="opacity:1" fill="#fefffe" d="M 205.5,280.5 C 257.168,280.333 308.834,280.5 360.5,281C 363.167,283.333 363.167,285.667 360.5,288C 308.833,288.667 257.167,288.667 205.5,288C 202.982,285.521 202.982,283.021 205.5,280.5 Z"/></g>
<g><path style="opacity:1" fill="#fefffe" d="M 206.5,304.5 C 215.839,304.334 225.173,304.5 234.5,305C 237.512,308.245 237.179,310.912 233.5,313C 224.5,313.667 215.5,313.667 206.5,313C 202.605,310.178 202.605,307.345 206.5,304.5 Z"/></g>
<g><path style="opacity:1" fill="#fefffe" d="M 248.5,304.5 C 285.839,304.167 323.173,304.5 360.5,305.5C 363.262,308.388 362.929,310.888 359.5,313C 321.804,313.815 284.137,313.648 246.5,312.5C 246.107,309.487 246.774,306.82 248.5,304.5 Z"/></g>
<g><path style="opacity:1" fill="#fefffe" d="M 207.5,328.5 C 225.836,328.333 244.17,328.5 262.5,329C 264.852,329.576 265.852,331.076 265.5,333.5C 265.291,334.994 264.624,336.161 263.5,337C 244.167,337.667 224.833,337.667 205.5,337C 202.992,333.493 203.659,330.659 207.5,328.5 Z"/></g>
<g><path style="opacity:1" fill="#fefffe" d="M 279.5,328.5 C 287.84,328.334 296.173,328.5 304.5,329C 308.795,330.845 309.462,333.512 306.5,337C 296.833,337.667 287.167,337.667 277.5,337C 274.568,333.3 275.234,330.467 279.5,328.5 Z"/></g>
</svg>
