<?xml version="1.0" encoding="UTF-8"?>
<!DOCTYPE svg PUBLIC "-//W3C//DTD SVG 1.1//EN" "http://www.w3.org/Graphics/SVG/1.1/DTD/svg11.dtd">
<svg xmlns="http://www.w3.org/2000/svg" version="1.1" width="512px" height="512px" style="shape-rendering:geometricPrecision; text-rendering:geometricPrecision; image-rendering:optimizeQuality; fill-rule:evenodd; clip-rule:evenodd" xmlns:xlink="http://www.w3.org/1999/xlink">
<g><path style="opacity:0.934" fill="#fefffe" d="M 262.5,92.5 C 269.906,92.152 277.239,92.652 284.5,94C 288.639,96.6391 292.639,99.4724 296.5,102.5C 300.421,99.5728 304.754,97.5728 309.5,96.5C 318.62,97.4485 322.787,102.448 322,111.5C 317.814,124.225 313.314,136.892 308.5,149.5C 320.819,162.319 333.319,174.986 346,187.5C 347.23,196.738 343.396,199.905 334.5,197C 322.32,184.32 309.987,171.82 297.5,159.5C 280.843,158.334 264.177,158.167 247.5,159C 230.306,176.194 213.14,193.36 196,210.5C 174.802,238.688 169.468,269.688 180,303.5C 200.733,295.69 221.566,295.523 242.5,303C 260.167,311.5 277.833,320 295.5,328.5C 303.062,334.978 306.895,343.311 307,353.5C 326.271,337.235 345.271,320.568 364,303.5C 369.57,287.218 370.904,270.552 368,253.5C 366.637,248.516 365.471,243.516 364.5,238.5C 364.092,233.742 366.259,231.409 371,231.5C 373.352,231.305 375.352,231.972 377,233.5C 379.606,240.318 381.606,247.318 383,254.5C 383.333,265.833 383.667,277.167 384,288.5C 399.092,283.639 410.092,288.306 417,302.5C 417.877,309.249 417.544,315.916 416,322.5C 414.667,324.5 413.333,326.5 412,328.5C 389.449,349.719 367.283,371.219 345.5,393C 330.865,405.954 313.865,413.954 294.5,417C 230.833,417.667 167.167,417.667 103.5,417C 98.6667,414.833 95.1667,411.333 93,406.5C 92.0158,375.747 92.3491,345.081 94,314.5C 96.4358,310.863 99.6025,308.03 103.5,306C 118.833,305.333 134.167,305.333 149.5,306C 152.677,307.85 155.843,309.683 159,311.5C 161.047,310.391 163.213,309.724 165.5,309.5C 153.556,268.652 160.722,231.652 187,198.5C 203.167,182.333 219.333,166.167 235.5,150C 231.56,138.064 227.393,126.23 223,114.5C 220.863,100.491 226.697,94.991 240.5,98C 242.405,99.87 244.572,101.37 247,102.5C 252.099,98.8699 257.266,95.5366 262.5,92.5 Z M 266.5,106.5 C 270.182,106.335 273.848,106.501 277.5,107C 282.796,112.315 289.13,115.481 296.5,116.5C 299.442,116.146 302.275,115.48 305,114.5C 301.962,124.45 298.796,134.45 295.5,144.5C 279.819,144.833 264.152,144.499 248.5,143.5C 245.265,133.735 242.098,124.068 239,114.5C 249.97,117.966 259.137,115.3 266.5,106.5 Z M 391.5,300.5 C 403.235,302.054 406.402,308.054 401,318.5C 378.193,340.639 355.36,362.806 332.5,385C 316.556,396.963 298.556,403.296 278.5,404C 239.501,404.5 200.501,404.667 161.5,404.5C 162.126,377.947 162.793,351.447 163.5,325C 176.644,320.048 189.977,315.715 203.5,312C 212.289,311.091 220.956,311.758 229.5,314C 248.565,321.712 267.232,330.379 285.5,340C 293.019,345.965 293.353,352.298 286.5,359C 284.5,359.5 282.5,360 280.5,360.5C 259.389,353.991 238.056,347.324 216.5,340.5C 208.418,342.537 206.751,346.871 211.5,353.5C 232.009,360.576 252.676,367.41 273.5,374C 289.38,375.759 304.047,372.425 317.5,364C 338.464,346.038 359.131,327.705 379.5,309C 383.147,305.497 387.147,302.663 391.5,300.5 Z M 111.5,318.5 C 121.839,318.334 132.172,318.5 142.5,319C 144.492,319.574 145.992,320.741 147,322.5C 147.667,348.833 147.667,375.167 147,401.5C 146.5,402 146,402.5 145.5,403C 134.239,404.6 122.906,404.933 111.5,404C 109.671,403.727 108.171,402.893 107,401.5C 105.361,375.896 105.028,350.229 106,324.5C 106.683,321.321 108.516,319.321 111.5,318.5 Z"/></g>
<g><path style="opacity:0.847" fill="#fefffe" d="M 354.5,205.5 C 362.161,204.663 365.661,207.996 365,215.5C 360.965,220.364 356.632,220.698 352,216.5C 350.812,212.259 351.645,208.592 354.5,205.5 Z"/></g>
<g><path style="opacity:0.92" fill="#fefffe" d="M 268.5,210.5 C 274.523,209.197 278.189,211.53 279.5,217.5C 288.208,221.055 293.208,227.555 294.5,237C 291.261,245.285 286.427,246.452 280,240.5C 278.946,231.466 274.446,228.966 266.5,233C 263.3,237.529 264.3,240.862 269.5,243C 283.637,243.14 291.97,250.14 294.5,264C 293.208,273.445 288.208,279.945 279.5,283.5C 277.908,290.212 273.908,292.212 267.5,289.5C 266.123,287.711 265.123,285.711 264.5,283.5C 252.992,278.799 248.826,270.465 252,258.5C 260.546,255.371 265.212,258.371 266,267.5C 270.665,270.456 274.998,270.122 279,266.5C 279.839,263.86 279.339,261.527 277.5,259.5C 271.771,258.212 266.104,256.712 260.5,255C 249.963,247.288 247.63,237.455 253.5,225.5C 256.025,221.969 259.359,219.635 263.5,218.5C 264.676,215.471 266.343,212.804 268.5,210.5 Z"/></g>
</svg>
