<?xml version="1.0" encoding="UTF-8"?>
<!DOCTYPE svg PUBLIC "-//W3C//DTD SVG 1.1//EN" "http://www.w3.org/Graphics/SVG/1.1/DTD/svg11.dtd">
<svg xmlns="http://www.w3.org/2000/svg" version="1.1" width="512px" height="512px" style="shape-rendering:geometricPrecision; text-rendering:geometricPrecision; image-rendering:optimizeQuality; fill-rule:evenodd; clip-rule:evenodd" xmlns:xlink="http://www.w3.org/1999/xlink">
<g><path style="opacity:0.921" fill="#fefffe" d="M 273.5,92.5 C 302.19,89.0443 320.19,101.211 327.5,129C 351.167,129.333 374.833,129.667 398.5,130C 405.701,132.193 411.534,136.36 416,142.5C 417.656,228.79 417.989,315.123 417,401.5C 413.859,408.641 408.692,413.808 401.5,417C 303.833,417.667 206.167,417.667 108.5,417C 102.207,415.043 97.3733,411.21 94,405.5C 92.8437,361.711 92.3437,317.878 92.5,274C 92.3437,230.122 92.8437,186.289 94,142.5C 98.165,136.001 103.998,131.834 111.5,130C 154.832,129.5 198.165,129.333 241.5,129.5C 244.52,110.408 255.187,98.075 273.5,92.5 Z M 275.5,103.5 C 299.542,101.008 313.208,111.675 316.5,135.5C 313.904,161.146 304.238,183.646 287.5,203C 283.698,205.035 280.531,204.202 278,200.5C 261.483,178.675 253.15,154.342 253,127.5C 256.682,115.719 264.182,107.719 275.5,103.5 Z M 279.5,124.5 C 292.138,122.967 297.304,128.3 295,140.5C 290.335,147.942 284.169,149.442 276.5,145C 270.516,137.073 271.516,130.24 279.5,124.5 Z M 113.5,140.5 C 123.506,140.334 133.506,140.5 143.5,141C 189.167,186.667 234.833,232.333 280.5,278C 283.634,280.12 286.634,279.954 289.5,277.5C 309.821,257.012 329.987,236.346 350,215.5C 351.378,209.212 348.878,206.379 342.5,207C 323.029,226.136 304.029,245.469 285.5,265C 284.833,265.667 284.167,265.667 283.5,265C 242.5,223.333 201.167,182 159.5,141C 186.831,140.5 214.165,140.333 241.5,140.5C 244.935,167.189 255.269,190.689 272.5,211C 279.592,217.742 286.925,218.075 294.5,212C 307.392,198.718 316.559,183.218 322,165.5C 324.154,157.564 325.987,149.564 327.5,141.5C 350.493,140.334 373.493,140.167 396.5,141C 399.071,141.901 401.404,143.234 403.5,145C 388.333,159.5 373.5,174.333 359,189.5C 356.972,196.969 359.805,199.636 367.5,197.5C 380.766,184.4 393.932,171.067 407,157.5C 407.667,168.5 407.667,179.5 407,190.5C 374.03,225.138 340.697,259.471 307,293.5C 304.184,296.58 303.851,299.913 306,303.5C 338.874,336.04 371.374,368.873 403.5,402C 402.667,403.5 401.5,404.667 400,405.5C 392.602,407.389 385.102,407.889 377.5,407C 314.833,344.333 252.167,281.667 189.5,219C 187.5,218.333 185.5,218.333 183.5,219C 156.987,246.013 130.32,272.847 103.5,299.5C 102.334,288.515 102.168,277.515 103,266.5C 124.333,245.167 145.667,223.833 167,202.5C 167.667,200.5 167.667,198.5 167,196.5C 148.833,178.333 130.667,160.167 112.5,142C 113.056,141.617 113.389,141.117 113.5,140.5 Z M 103.5,149.5 C 120.479,165.812 137.146,182.479 153.5,199.5C 136.847,216.653 120.014,233.653 103,250.5C 102.202,216.815 102.368,183.148 103.5,149.5 Z M 406.5,207.5 C 407.831,267.335 407.831,327.335 406.5,387.5C 377.019,358.185 347.685,328.685 318.5,299C 347.939,268.639 377.273,238.139 406.5,207.5 Z M 186.5,232.5 C 244.965,290.465 303.299,348.632 361.5,407C 279.833,407.667 198.167,407.667 116.5,407C 107.865,406.031 103.365,401.197 103,392.5C 102.333,367.167 102.333,341.833 103,316.5C 130.701,288.299 158.534,260.299 186.5,232.5 Z M 187.5,305.5 C 198.25,307.657 201.75,313.991 198,324.5C 191.815,331.488 185.482,331.821 179,325.5C 174.464,315.581 177.297,308.914 187.5,305.5 Z"/></g>
<g><path style="opacity:0.899" fill="#fefffe" d="M 278.5,112.5 C 300.378,112.212 309.544,122.879 306,144.5C 299.194,157.511 288.694,161.677 274.5,157C 262.803,149.92 258.97,139.754 263,126.5C 266.429,119.875 271.596,115.209 278.5,112.5 Z M 279.5,124.5 C 271.516,130.24 270.516,137.073 276.5,145C 284.169,149.442 290.335,147.942 295,140.5C 297.304,128.3 292.138,122.967 279.5,124.5 Z"/></g>
<g><path style="opacity:0.902" fill="#fefffe" d="M 185.5,273.5 C 194.005,273.229 201.839,275.229 209,279.5C 210.677,284.655 208.844,287.655 203.5,288.5C 184.513,281.073 169.68,286.073 159,303.5C 155.962,314.126 155.962,324.792 159,335.5C 163.935,353.871 172.435,370.371 184.5,385C 186.044,386.187 187.711,386.52 189.5,386C 192.63,383.872 195.463,381.372 198,378.5C 210.629,359.952 218.129,339.452 220.5,317C 219.474,311.423 218.141,305.923 216.5,300.5C 216.576,296.661 218.576,294.661 222.5,294.5C 224.33,294.58 225.663,295.413 226.5,297C 229.774,303.384 231.441,310.218 231.5,317.5C 229.692,337.77 223.859,356.77 214,374.5C 209.28,383.553 202.78,391.053 194.5,397C 184.886,398.821 177.053,395.655 171,387.5C 153.509,363.174 145.176,336.174 146,306.5C 152.403,287.253 165.57,276.253 185.5,273.5 Z M 187.5,305.5 C 177.297,308.914 174.464,315.581 179,325.5C 185.482,331.821 191.815,331.488 198,324.5C 201.75,313.991 198.25,307.657 187.5,305.5 Z"/></g>
<g><path style="opacity:0.9" fill="#fefffe" d="M 186.5,294.5 C 204.5,295.824 212.667,305.49 211,323.5C 205.127,339.013 194.294,344.18 178.5,339C 166.374,331.727 162.541,321.227 167,307.5C 171.577,300.058 178.077,295.724 186.5,294.5 Z M 187.5,305.5 C 177.297,308.914 174.464,315.581 179,325.5C 185.482,331.821 191.815,331.488 198,324.5C 201.75,313.991 198.25,307.657 187.5,305.5 Z"/></g>
</svg>
