<?xml version="1.0" encoding="UTF-8"?>
<!DOCTYPE svg PUBLIC "-//W3C//DTD SVG 1.1//EN" "http://www.w3.org/Graphics/SVG/1.1/DTD/svg11.dtd">
<svg xmlns="http://www.w3.org/2000/svg" version="1.1" width="256px" height="256px" style="shape-rendering:geometricPrecision; text-rendering:geometricPrecision; image-rendering:optimizeQuality; fill-rule:evenodd; clip-rule:evenodd" xmlns:xlink="http://www.w3.org/1999/xlink">
<g><path style="opacity:0.998" fill="#f9f9f9" d="M 125.5,64.5 C 147.974,71.6028 170.141,79.6028 192,88.5C 192.667,114.5 192.667,140.5 192,166.5C 170.704,174.988 149.204,182.988 127.5,190.5C 105.796,182.988 84.2957,174.988 63,166.5C 62.3333,140.5 62.3333,114.5 63,88.5C 83.9621,80.5929 104.795,72.5929 125.5,64.5 Z M 125.5,71.5 C 143.806,77.1533 161.806,83.6533 179.5,91C 163.09,96.8033 146.756,102.803 130.5,109C 126.598,109.738 122.932,109.072 119.5,107C 126.734,104.647 133.734,101.813 140.5,98.5C 141.46,97.1877 141.294,95.8544 140,94.5C 130.111,90.5569 120.111,86.8902 110,83.5C 100.683,86.408 91.5164,89.7413 82.5,93.5C 80.2046,92.5682 77.8713,91.7348 75.5,91C 92.2718,84.5797 108.938,78.0797 125.5,71.5 Z M 107.5,90.5 C 114.679,91.9477 121.679,94.1143 128.5,97C 122.28,99.0272 116.113,101.194 110,103.5C 104.112,101.472 98.2787,99.3057 92.5,97C 97.6423,94.9063 102.642,92.7397 107.5,90.5 Z M 68.5,95.5 C 71.8437,96.5075 75.1771,97.5075 78.5,98.5C 78.3335,109.172 78.5002,119.839 79,130.5C 80.008,132.259 81.508,133.426 83.5,134C 92.7363,137.636 102.07,140.636 111.5,143C 112,142.5 112.5,142 113,141.5C 113.5,131.839 113.666,122.172 113.5,112.5C 117.235,113.301 120.901,114.301 124.5,115.5C 124.833,137.843 124.5,160.177 123.5,182.5C 105.284,175.429 86.951,168.762 68.5,162.5C 68.5,140.167 68.5,117.833 68.5,95.5 Z M 184.5,95.5 C 186.489,117.475 187.156,139.808 186.5,162.5C 168.049,168.762 149.716,175.429 131.5,182.5C 130.5,160.177 130.167,137.843 130.5,115.5C 148.795,109.405 166.795,102.738 184.5,95.5 Z M 85.5,101.5 C 92.3609,104.065 99.1942,106.732 106,109.5C 106.667,118.167 106.667,126.833 106,135.5C 99.3333,132.833 92.6667,130.167 86,127.5C 85.5002,118.84 85.3336,110.173 85.5,101.5 Z"/></g>
<g><path style="opacity:1" fill="#f5f4f7" d="M 176.5,133.5 C 181.667,132.492 183.334,134.325 181.5,139C 173.667,141.833 165.833,144.667 158,147.5C 154.191,146.235 153.691,144.235 156.5,141.5C 163.255,138.779 169.922,136.113 176.5,133.5 Z"/></g>
<g><path style="opacity:1" fill="#f7f5f9" d="M 177.5,143.5 C 182.159,143.015 183.492,144.848 181.5,149C 173.943,152.13 166.277,154.963 158.5,157.5C 154.056,156.31 153.556,154.31 157,151.5C 164.051,149.1 170.884,146.433 177.5,143.5 Z"/></g>
<g><path style="opacity:0.995" fill="#f7f7f7" d="M 175.5,154.5 C 177.792,154.244 179.959,154.577 182,155.5C 182.711,157.367 182.211,158.867 180.5,160C 171.333,163.5 162.167,167 153,170.5C 149.831,169.494 148.997,167.494 150.5,164.5C 159.035,161.39 167.368,158.056 175.5,154.5 Z"/></g>
<g><path style="opacity:0.987" fill="#f8f8f8" d="M 143.5,166.5 C 146.127,166.293 147.793,167.46 148.5,170C 145.729,174.494 143.063,174.494 140.5,170C 141.071,168.401 142.071,167.234 143.5,166.5 Z"/></g>
</svg>
