<?xml version="1.0" encoding="UTF-8"?>
<!DOCTYPE svg PUBLIC "-//W3C//DTD SVG 1.1//EN" "http://www.w3.org/Graphics/SVG/1.1/DTD/svg11.dtd">
<svg xmlns="http://www.w3.org/2000/svg" version="1.1" width="512px" height="512px" style="shape-rendering:geometricPrecision; text-rendering:geometricPrecision; image-rendering:optimizeQuality; fill-rule:evenodd; clip-rule:evenodd" xmlns:xlink="http://www.w3.org/1999/xlink">
<g><path style="opacity:0.9" fill="#fefffe" d="M 243.5,117.5 C 268.386,115.791 292.22,119.791 315,129.5C 322.099,125.222 328.932,125.556 335.5,130.5C 338.699,134.239 339.699,138.406 338.5,143C 370.737,166.28 389.57,197.78 395,237.5C 396.987,232.728 400.32,231.395 405,233.5C 405.667,235.833 405.667,238.167 405,240.5C 401.909,245.014 398.575,249.347 395,253.5C 393.401,255.036 391.567,255.536 389.5,255C 382.713,251.132 377.046,246.132 372.5,240C 373.967,235.705 376.967,234.372 381.5,236C 382.667,237.167 383.833,238.333 385,239.5C 379.967,202.749 362.634,173.416 333,151.5C 327.12,154.24 321.286,154.073 315.5,151C 311.904,147.62 310.571,143.62 311.5,139C 285.894,127.317 259.227,124.317 231.5,130C 224.73,131.692 218.064,133.692 211.5,136C 207.271,137.498 204.271,136.331 202.5,132.5C 203.301,129.867 204.967,128.033 207.5,127C 219.03,123.131 231.03,119.964 243.5,117.5 Z M 323.5,135.5 C 326.468,135.626 328.468,137.126 329.5,140C 326.72,145.769 323.72,145.936 320.5,140.5C 321.092,138.577 322.092,136.911 323.5,135.5 Z"/></g>
<g><path style="opacity:0.9" fill="#fefffe" d="M 165.5,133.5 C 170.196,133.671 174.863,134.171 179.5,135C 180.333,135.833 181.167,136.667 182,137.5C 182.539,140.529 183.206,143.529 184,146.5C 187.847,149.019 192.014,150.185 196.5,150C 200.411,146.403 204.744,145.737 209.5,148C 213.582,151.294 217.082,155.127 220,159.5C 220.768,163.645 219.768,167.312 217,170.5C 216.333,171.833 216.333,173.167 217,174.5C 229.845,166.982 242.678,159.482 255.5,152C 257.833,151.333 260.167,151.333 262.5,152C 289.872,168.563 317.539,184.563 345.5,200C 346.667,201.167 347.833,202.333 349,203.5C 349.5,218.496 349.667,233.496 349.5,248.5C 378.571,249.57 396.571,264.237 403.5,292.5C 405.045,307.052 401.545,320.385 393,332.5C 386.77,339.297 381.27,346.63 376.5,354.5C 382.533,363.098 381.533,370.598 373.5,377C 370.607,378.149 367.607,378.649 364.5,378.5C 364.258,389.57 358.591,394.404 347.5,393C 341.067,390.302 338.067,385.469 338.5,378.5C 329.158,378.652 324.158,374.152 323.5,365C 323.687,360.874 324.52,357.041 326,353.5C 321.095,345.099 315.261,337.432 308.5,330.5C 292.112,339.979 275.612,349.312 259,358.5C 229.305,342.109 199.805,325.442 170.5,308.5C 169.808,307.975 169.308,307.308 169,306.5C 168.5,291.837 168.333,277.17 168.5,262.5C 164.738,262.373 161.072,261.706 157.5,260.5C 155.66,256.811 154.326,252.978 153.5,249C 150.065,248.116 146.732,246.949 143.5,245.5C 140.709,246.73 138.042,248.23 135.5,250C 133.833,250.667 132.167,250.667 130.5,250C 127.283,246.483 123.783,243.316 120,240.5C 118.304,238.44 117.137,236.107 116.5,233.5C 117.914,229.928 119.914,226.762 122.5,224C 120.684,220.207 118.684,216.54 116.5,213C 113.041,212.137 109.707,210.97 106.5,209.5C 105.167,201.833 105.167,194.167 106.5,186.5C 109.707,185.03 113.041,183.863 116.5,183C 118.5,179.667 120.5,176.333 122.5,173C 120.104,169.707 118.104,166.207 116.5,162.5C 117.059,159.715 118.392,157.382 120.5,155.5C 123.458,152.676 126.458,149.842 129.5,147C 131.833,146.333 134.167,146.333 136.5,147C 138.681,148.84 141.181,150.007 144,150.5C 147.209,149.48 150.376,148.314 153.5,147C 154.389,143.046 155.722,139.213 157.5,135.5C 160.306,134.832 162.972,134.166 165.5,133.5 Z M 166.5,143.5 C 168.833,143.5 171.167,143.5 173.5,143.5C 173.68,147.576 174.68,151.409 176.5,155C 182.171,157.058 187.837,159.225 193.5,161.5C 197.758,161.256 201.258,159.589 204,156.5C 205.667,158.167 207.333,159.833 209,161.5C 208.435,165.312 207.268,168.979 205.5,172.5C 205.697,174.682 206.364,176.682 207.5,178.5C 206.622,180.939 204.955,181.772 202.5,181C 189.889,160.865 172.555,155.532 150.5,165C 132.171,177.558 127.004,194.391 135,215.5C 142.43,228.464 153.597,235.13 168.5,235.5C 168.5,241.167 168.5,246.833 168.5,252.5C 167.022,252.762 165.689,252.429 164.5,251.5C 163.731,248.49 162.897,245.49 162,242.5C 160.745,241.789 159.579,240.956 158.5,240C 153.342,238.183 148.175,236.35 143,234.5C 139.957,235.63 136.957,236.963 134,238.5C 131.321,237.65 129.488,235.983 128.5,233.5C 130.065,230.434 131.398,227.267 132.5,224C 130.27,219.026 128.436,213.859 127,208.5C 126.535,207.069 125.701,205.903 124.5,205C 121.223,203.857 117.89,203.023 114.5,202.5C 114.5,199.5 114.5,196.5 114.5,193.5C 117.522,193.196 120.522,192.696 123.5,192C 125.049,190.786 126.215,189.286 127,187.5C 128.303,182.243 130.136,177.243 132.5,172.5C 131.931,168.762 130.264,165.595 127.5,163C 129.067,160.432 131.233,158.598 134,157.5C 136.736,158.987 139.569,160.32 142.5,161.5C 148.588,159.625 154.588,157.458 160.5,155C 162.643,152.242 163.81,149.076 164,145.5C 164.995,144.934 165.828,144.267 166.5,143.5 Z M 256.5,162.5 C 258.199,162.34 259.866,162.506 261.5,163C 266.906,166.732 272.573,170.065 278.5,173C 278.833,173.333 279.167,173.667 279.5,174C 254.255,187.96 229.255,202.46 204.5,217.5C 197.169,213.837 190.169,209.67 183.5,205C 208.19,191.287 232.523,177.121 256.5,162.5 Z M 161.5,170.5 C 176.418,168.509 187.418,174.009 194.5,187C 192.91,188.046 191.41,189.213 190,190.5C 186.225,181.103 179.225,176.103 169,175.5C 151.318,178.519 144.318,188.852 148,206.5C 151.804,215.493 158.638,220.16 168.5,220.5C 168.5,222.167 168.5,223.833 168.5,225.5C 154.799,224.632 145.966,217.632 142,204.5C 140.014,188.123 146.514,176.79 161.5,170.5 Z M 288.5,179.5 C 293.437,181.637 298.104,184.304 302.5,187.5C 300.007,189.58 297.341,191.414 294.5,193C 272.173,205.74 250.007,218.574 228,231.5C 223.865,228.195 219.365,225.528 214.5,223.5C 239.415,209.251 264.082,194.585 288.5,179.5 Z M 166.5,185.5 C 173.448,185.618 178.448,188.785 181.5,195C 177.227,197.384 173.061,199.884 169,202.5C 169.01,211.666 165.676,212.666 159,205.5C 154.521,196.136 157.021,189.47 166.5,185.5 Z M 312.5,193.5 C 319.685,197.593 327.018,201.426 334.5,205C 309.704,219.388 285.038,233.721 260.5,248C 259.167,248.667 257.833,248.667 256.5,248C 250.294,244.403 244.294,240.569 238.5,236.5C 263.271,222.122 287.938,207.789 312.5,193.5 Z M 178.5,214.5 C 185.525,218.098 192.358,222.098 199,226.5C 199.333,241.167 199.667,255.833 200,270.5C 208.87,276.182 218.036,281.182 227.5,285.5C 229.374,285.61 230.874,284.944 232,283.5C 232.333,270.833 232.667,258.167 233,245.5C 239.823,249.245 246.49,253.245 253,257.5C 253.667,286.5 253.667,315.5 253,344.5C 227.902,330.111 202.736,315.611 177.5,301C 178.495,272.24 178.829,243.407 178.5,214.5 Z M 337.5,214.5 C 338.829,219.96 339.496,225.793 339.5,232C 339.333,237.833 339.167,243.667 339,249.5C 305.269,262.321 293.436,286.154 303.5,321C 290.861,329.324 277.861,337.158 264.5,344.5C 263.167,315.5 263.167,286.5 264.5,257.5C 289.144,243.358 313.478,229.024 337.5,214.5 Z M 209.5,232.5 C 213.914,234.455 218.08,236.789 222,239.5C 222.667,250.167 222.667,260.833 222,271.5C 217.836,269.419 213.836,267.086 210,264.5C 209.5,253.839 209.333,243.172 209.5,232.5 Z M 343.5,258.5 C 369.159,256.679 385.659,268.013 393,292.5C 393.991,300.651 393.324,308.651 391,316.5C 385.797,325.584 379.63,333.917 372.5,341.5C 370.413,344.673 368.579,348.006 367,351.5C 365.989,352.337 364.822,352.67 363.5,352.5C 363.5,338.833 363.5,325.167 363.5,311.5C 376.811,310.904 381.145,304.237 376.5,291.5C 369.682,284.905 362.849,284.905 356,291.5C 354.241,294.608 353.408,297.941 353.5,301.5C 352.167,301.5 350.833,301.5 349.5,301.5C 349.887,292.719 345.72,287.719 337,286.5C 324.119,290.138 321.286,297.638 328.5,309C 330.081,309.707 331.581,310.54 333,311.5C 335.288,311.263 337.788,311.263 340.5,311.5C 340.5,325.167 340.5,338.833 340.5,352.5C 338.856,352.714 337.356,352.38 336,351.5C 334.269,347.705 332.269,344.038 330,340.5C 321.014,331.276 314.348,320.943 310,309.5C 307.672,283.459 318.839,266.459 343.5,258.5 Z M 335.5,296.5 C 337.973,296.736 339.64,298.069 340.5,300.5C 335.682,302.584 334.016,301.251 335.5,296.5 Z M 364.5,296.5 C 368.161,296.35 369.161,297.85 367.5,301C 366.207,301.49 364.873,301.657 363.5,301.5C 363.366,299.708 363.699,298.042 364.5,296.5 Z M 349.5,311.5 C 350.833,311.5 352.167,311.5 353.5,311.5C 353.5,325.167 353.5,338.833 353.5,352.5C 352.167,352.5 350.833,352.5 349.5,352.5C 349.5,338.833 349.5,325.167 349.5,311.5 Z M 335.5,361.5 C 346.505,361.333 357.505,361.5 368.5,362C 370.62,363.523 370.953,365.356 369.5,367.5C 357.5,368.833 345.5,368.833 333.5,367.5C 331.981,364.723 332.648,362.723 335.5,361.5 Z M 347.5,378.5 C 350.247,378.187 352.914,378.52 355.5,379.5C 353.94,383.848 351.44,384.515 348,381.5C 347.517,380.552 347.351,379.552 347.5,378.5 Z"/></g>
<g><path style="opacity:0.904" fill="#fefffe" d="M 123.5,256.5 C 125.604,256.201 127.604,256.534 129.5,257.5C 134.383,261.103 139.049,264.936 143.5,269C 145.277,275.223 142.944,277.557 136.5,276C 135,275.167 133.833,274 133,272.5C 138.191,308.222 155.191,336.889 184,358.5C 192.176,353.552 199.176,354.886 205,362.5C 205.97,365.444 206.804,368.444 207.5,371.5C 242.826,386.375 277.993,386.041 313,370.5C 319.099,372.399 319.933,375.566 315.5,380C 283.895,393 251.229,395 217.5,386C 212.357,384.453 207.357,382.62 202.5,380.5C 188.265,386.63 180.099,381.963 178,366.5C 147.732,343.348 129.232,313.015 122.5,275.5C 120.691,277.488 118.524,278.822 116,279.5C 111.278,277.975 110.278,274.975 113,270.5C 116.752,265.982 120.252,261.316 123.5,256.5 Z M 192.5,364.5 C 194.296,365.793 195.963,367.293 197.5,369C 194.513,374.687 191.513,374.853 188.5,369.5C 189.127,367.213 190.46,365.546 192.5,364.5 Z"/></g>
</svg>
