<?xml version="1.0" encoding="UTF-8"?>
<!DOCTYPE svg PUBLIC "-//W3C//DTD SVG 1.1//EN" "http://www.w3.org/Graphics/SVG/1.1/DTD/svg11.dtd">
<svg xmlns="http://www.w3.org/2000/svg" version="1.1" width="512px" height="512px" style="shape-rendering:geometricPrecision; text-rendering:geometricPrecision; image-rendering:optimizeQuality; fill-rule:evenodd; clip-rule:evenodd" xmlns:xlink="http://www.w3.org/1999/xlink">
<g><path style="opacity:1" fill="#fefffe" d="M 108.5,107.5 C 110.17,107.751 111.67,108.418 113,109.5C 113.5,204.499 113.667,299.499 113.5,394.5C 122.5,394.5 131.5,394.5 140.5,394.5C 140.333,374.831 140.5,355.164 141,335.5C 153.965,329.96 166.965,324.626 180,319.5C 181.011,320.337 182.178,320.67 183.5,320.5C 183.5,345.167 183.5,369.833 183.5,394.5C 192.833,394.5 202.167,394.5 211.5,394.5C 211.5,365.167 211.5,335.833 211.5,306.5C 224.424,302.728 237.257,298.728 250,294.5C 251.512,295.257 252.846,296.257 254,297.5C 254.5,329.832 254.667,362.165 254.5,394.5C 263.5,394.5 272.5,394.5 281.5,394.5C 281.333,357.165 281.5,319.832 282,282.5C 294.719,276.962 307.552,271.629 320.5,266.5C 321.748,267.04 322.915,267.707 324,268.5C 324.5,310.499 324.667,352.499 324.5,394.5C 333.5,394.5 342.5,394.5 351.5,394.5C 351.333,348.165 351.5,301.832 352,255.5C 352.5,254.333 353.333,253.5 354.5,253C 359.448,251.346 364.448,249.846 369.5,248.5C 370.5,221.842 370.833,195.175 370.5,168.5C 348.831,168.667 327.164,168.5 305.5,168C 304.409,165.936 304.242,163.769 305,161.5C 310.794,154.078 315.961,146.245 320.5,138C 315.621,130.407 310.621,122.907 305.5,115.5C 304.526,113.257 304.192,110.924 304.5,108.5C 328.136,107.363 351.803,107.197 375.5,108C 376.416,108.374 377.25,108.874 378,109.5C 378.5,154.832 378.667,200.165 378.5,245.5C 382.474,244.521 386.474,243.521 390.5,242.5C 391.772,242.57 392.938,242.903 394,243.5C 394.5,293.832 394.667,344.166 394.5,394.5C 397.518,394.335 400.518,394.502 403.5,395C 406.167,397.333 406.167,399.667 403.5,402C 304.833,402.667 206.167,402.667 107.5,402C 107,401.5 106.5,401 106,400.5C 105.333,303.5 105.333,206.5 106,109.5C 106.995,108.934 107.828,108.267 108.5,107.5 Z M 315.5,116.5 C 333.659,115.503 351.992,115.17 370.5,115.5C 370.5,130.5 370.5,145.5 370.5,160.5C 352.497,160.667 334.497,160.5 316.5,160C 321.497,153.161 325.83,145.995 329.5,138.5C 329.423,136.701 328.923,135.034 328,133.5C 324.301,127.41 320.134,121.743 315.5,116.5 Z M 383.5,252.5 C 384.5,252.5 385.5,252.5 386.5,252.5C 386.5,299.5 386.5,346.5 386.5,393.5C 377.5,393.5 368.5,393.5 359.5,393.5C 359.167,349.162 359.5,304.828 360.5,260.5C 368.36,258.054 376.027,255.387 383.5,252.5 Z M 315.5,277.5 C 316.499,315.996 316.832,354.663 316.5,393.5C 307.5,393.5 298.5,393.5 289.5,393.5C 289.333,358.498 289.5,323.498 290,288.5C 298.577,284.707 307.077,281.041 315.5,277.5 Z M 242.5,305.5 C 243.833,305.5 245.167,305.5 246.5,305.5C 246.5,334.833 246.5,364.167 246.5,393.5C 237.5,393.5 228.5,393.5 219.5,393.5C 219.5,366.5 219.5,339.5 219.5,312.5C 227.447,310.737 235.113,308.404 242.5,305.5 Z M 173.5,330.5 C 175.489,351.14 176.155,372.14 175.5,393.5C 166.5,393.5 157.5,393.5 148.5,393.5C 148.5,375.833 148.5,358.167 148.5,340.5C 157.216,337.932 165.549,334.599 173.5,330.5 Z"/></g>
<g><path style="opacity:1" fill="#fefffe" d="M 249.5,160.5 C 251.527,160.338 253.527,160.505 255.5,161C 262.969,165.811 270.136,170.978 277,176.5C 277.667,177.833 277.667,179.167 277,180.5C 271.622,188.089 266.122,195.589 260.5,203C 257.412,203.588 255.745,202.255 255.5,199C 256.575,194.26 258.908,190.26 262.5,187C 260.833,186.333 259.167,186.333 257.5,187C 248.157,189.674 238.824,192.341 229.5,195C 227.448,195.93 225.948,197.43 225,199.5C 218.863,210.284 212.363,220.784 205.5,231C 193.833,231.333 182.167,231.667 170.5,232C 163.833,240.667 157.167,249.333 150.5,258C 144.92,259.261 143.087,257.094 145,251.5C 152.025,242.642 158.859,233.642 165.5,224.5C 177.468,223.852 189.468,223.186 201.5,222.5C 208.041,211.251 214.707,200.084 221.5,189C 235.208,184.93 248.874,180.764 262.5,176.5C 258.141,172.974 253.641,169.641 249,166.5C 248.322,164.402 248.489,162.402 249.5,160.5 Z"/></g>
</svg>
