<?xml version="1.0" encoding="UTF-8"?>
<!DOCTYPE svg PUBLIC "-//W3C//DTD SVG 1.1//EN" "http://www.w3.org/Graphics/SVG/1.1/DTD/svg11.dtd">
<svg xmlns="http://www.w3.org/2000/svg" version="1.1" width="512px" height="512px" style="shape-rendering:geometricPrecision; text-rendering:geometricPrecision; image-rendering:optimizeQuality; fill-rule:evenodd; clip-rule:evenodd" xmlns:xlink="http://www.w3.org/1999/xlink">
<g><path style="opacity:0.9" fill="#fefffe" d="M 222.5,105.5 C 260.264,105.482 283.764,123.482 293,159.5C 301.086,163.804 304.086,170.47 302,179.5C 300.93,182.242 299.43,184.742 297.5,187C 299.068,189.304 300.235,191.804 301,194.5C 301.667,201.833 301.667,209.167 301,216.5C 300.151,219.561 298.651,222.228 296.5,224.5C 293.183,227.092 289.849,229.592 286.5,232C 285.875,238.52 283.875,244.52 280.5,250C 286.854,252.7 292.354,256.534 297,261.5C 297.471,259.754 298.138,258.087 299,256.5C 301.589,254.789 304.089,252.955 306.5,251C 301.159,239.361 304.492,231.694 316.5,228C 324.167,227.333 331.833,227.333 339.5,228C 349.012,230.507 352.845,236.674 351,246.5C 350.55,248.519 349.717,250.352 348.5,252C 355.984,254.157 359.651,259.157 359.5,267C 359.457,270.168 358.791,273.168 357.5,276C 372.914,288.188 382.414,304.021 386,323.5C 390.559,341.796 388.892,359.463 381,376.5C 371.162,392.337 356.995,401.504 338.5,404C 330.246,404.867 322.08,404.367 314,402.5C 251.518,403.658 189.018,403.824 126.5,403C 124.671,402.727 123.171,401.893 122,400.5C 121.333,375.167 121.333,349.833 122,324.5C 126.191,305.975 137.691,295.475 156.5,293C 152.382,284.738 152.548,276.571 157,268.5C 163.238,260.476 170.738,253.976 179.5,249C 176.675,243.522 174.842,237.689 174,231.5C 167.552,228.597 162.886,223.93 160,217.5C 159.333,209.167 159.333,200.833 160,192.5C 160.983,190.552 162.15,188.718 163.5,187C 161.622,185.457 160.122,183.624 159,181.5C 155.975,171.566 158.975,164.233 168,159.5C 174.818,129.848 192.985,111.848 222.5,105.5 Z M 223.5,116.5 C 253.896,115.895 273.23,130.228 281.5,159.5C 247.165,159.667 212.832,159.5 178.5,159C 185.268,136.064 200.268,121.897 223.5,116.5 Z M 171.5,169.5 C 210.501,169.333 249.501,169.5 288.5,170C 292.784,171.718 293.451,174.552 290.5,178.5C 250.838,179.667 211.171,179.833 171.5,179C 167.785,175.924 167.785,172.758 171.5,169.5 Z M 184.5,190.5 C 215.167,190.5 245.833,190.5 276.5,190.5C 276.5,192.5 276.5,194.5 276.5,196.5C 245.833,196.5 215.167,196.5 184.5,196.5C 184.5,194.5 184.5,192.5 184.5,190.5 Z M 172.5,191.5 C 173.657,199.99 173.824,208.657 173,217.5C 170.082,213.873 168.916,209.707 169.5,205C 169.667,202.5 169.833,200 170,197.5C 171.122,195.593 171.955,193.593 172.5,191.5 Z M 287.5,192.5 C 288.79,193.058 289.623,194.058 290,195.5C 290.667,202.167 290.667,208.833 290,215.5C 289.333,216.167 288.667,216.833 288,217.5C 287.5,209.173 287.334,200.84 287.5,192.5 Z M 184.5,206.5 C 186.167,206.5 187.833,206.5 189.5,206.5C 189.701,219.185 196.201,224.518 209,222.5C 221.75,224.573 228.25,219.239 228.5,206.5C 229.833,206.5 231.167,206.5 232.5,206.5C 231.146,214.291 234.146,219.457 241.5,222C 248.167,222.667 254.833,222.667 261.5,222C 269.357,219.943 272.69,214.776 271.5,206.5C 273.167,206.5 274.833,206.5 276.5,206.5C 276.5,211.167 276.5,215.833 276.5,220.5C 262.073,226.192 246.739,229.526 230.5,230.5C 214.509,229.571 199.175,226.237 184.5,220.5C 184.5,215.833 184.5,211.167 184.5,206.5 Z M 200.5,206.5 C 206.167,206.5 211.833,206.5 217.5,206.5C 217.739,208.467 217.406,210.301 216.5,212C 211.5,212.667 206.5,212.667 201.5,212C 200.594,210.301 200.261,208.467 200.5,206.5 Z M 242.5,206.5 C 248.5,206.5 254.5,206.5 260.5,206.5C 260.739,208.467 260.406,210.301 259.5,212C 254.5,212.667 249.5,212.667 244.5,212C 242.845,210.556 242.178,208.722 242.5,206.5 Z M 274.5,231.5 C 275.097,231.735 275.43,232.235 275.5,233C 267.413,261.392 248.746,273.725 219.5,270C 201.754,264.367 190.421,252.533 185.5,234.5C 185.833,233.833 186.167,233.167 186.5,232.5C 211.023,241.316 236.023,242.816 261.5,237C 266.139,235.674 270.473,233.841 274.5,231.5 Z M 316.5,238.5 C 324.174,238.334 331.841,238.5 339.5,239C 340.833,244.358 339.5,249.025 335.5,253C 330.167,253.667 324.833,253.667 319.5,253C 317.833,249.333 316.167,245.667 314.5,242C 315.305,240.887 315.972,239.721 316.5,238.5 Z M 183.5,259.5 C 184.675,259.281 185.675,259.614 186.5,260.5C 190.702,265.868 195.702,270.368 201.5,274C 199.974,278.193 197.141,281.026 193,282.5C 192.064,285.792 192.564,288.792 194.5,291.5C 202.19,298.454 211.19,302.621 221.5,304C 235.427,305.895 248.427,303.395 260.5,296.5C 264.352,293.996 267.018,290.662 268.5,286.5C 268.117,282.947 266.117,280.78 262.5,280C 260.99,278.649 259.99,276.982 259.5,275C 265.294,270.373 270.628,265.207 275.5,259.5C 284.181,263.014 290.848,268.847 295.5,277C 291.708,281.129 287.874,285.296 284,289.5C 280.958,294.419 277.791,299.252 274.5,304C 243.258,315.703 212.258,315.037 181.5,302C 175.848,299.25 171.014,295.417 167,290.5C 162.336,281.135 164.169,273.301 172.5,267C 176.428,264.765 180.095,262.265 183.5,259.5 Z M 309.5,261.5 C 321.373,265.316 333.206,265.316 345,261.5C 350.299,264.327 350.799,267.827 346.5,272C 334.167,275.333 321.833,275.333 309.5,272C 305.565,268.504 305.565,265.004 309.5,261.5 Z M 211.5,278.5 C 217.639,280.57 223.972,281.903 230.5,282.5C 237.292,281.592 243.958,280.258 250.5,278.5C 250.377,281.588 251.377,284.255 253.5,286.5C 250.029,290.236 245.696,292.402 240.5,293C 228.837,294.932 217.837,293.266 207.5,288C 207.167,287.667 206.833,287.333 206.5,287C 208.556,284.386 210.223,281.553 211.5,278.5 Z M 307.5,282.5 C 320.7,286.433 333.867,286.433 347,282.5C 364.066,294.776 374.066,311.442 377,332.5C 381.026,353.859 374.859,371.359 358.5,385C 338.446,396.365 318.446,396.199 298.5,384.5C 280.97,369.442 274.47,350.442 279,327.5C 282.957,308.904 292.457,293.904 307.5,282.5 Z M 153.5,303.5 C 157.514,303.334 161.514,303.501 165.5,304C 180.222,315.011 196.889,321.011 215.5,322C 225.5,322.667 235.5,322.667 245.5,322C 254.293,320.501 262.959,318.834 271.5,317C 264.106,339.446 266.606,360.612 279,380.5C 282.527,384.694 286.36,388.527 290.5,392C 249.501,392.5 208.501,392.667 167.5,392.5C 167.667,378.829 167.5,365.163 167,351.5C 163.667,347.5 160.333,347.5 157,351.5C 156.5,365.163 156.333,378.829 156.5,392.5C 148.5,392.5 140.5,392.5 132.5,392.5C 132.333,369.498 132.5,346.498 133,323.5C 136.595,313.326 143.428,306.659 153.5,303.5 Z M 320.5,315.5 C 321.794,317.048 322.461,319.048 322.5,321.5C 322.344,328.566 320.344,328.566 316.5,321.5C 317.467,319.21 318.8,317.21 320.5,315.5 Z M 332.5,340.5 C 340.283,344.57 340.449,348.903 333,353.5C 332.501,349.179 332.334,344.846 332.5,340.5 Z"/></g>
<g><path style="opacity:0.927" fill="#fefffe" d="M 324.5,295.5 C 330.833,294.5 333.5,297.167 332.5,303.5C 337.179,303.334 341.845,303.501 346.5,304C 349.512,306.221 350.179,309.054 348.5,312.5C 343.208,313.495 337.875,313.828 332.5,313.5C 332.172,318.875 332.505,324.208 333.5,329.5C 349.013,334.062 353.013,343.395 345.5,357.5C 342.085,361.528 337.751,363.861 332.5,364.5C 333.99,372.159 331.157,374.492 324,371.5C 322.798,369.323 322.298,366.989 322.5,364.5C 317.821,364.666 313.155,364.499 308.5,364C 304.869,361.593 304.536,358.759 307.5,355.5C 312.456,354.506 317.456,354.173 322.5,354.5C 322.5,349.167 322.5,343.833 322.5,338.5C 308.492,335.352 303.658,327.019 308,313.5C 311.355,308.075 316.188,305.075 322.5,304.5C 322.405,301.303 323.072,298.303 324.5,295.5 Z M 320.5,315.5 C 318.8,317.21 317.467,319.21 316.5,321.5C 320.344,328.566 322.344,328.566 322.5,321.5C 322.461,319.048 321.794,317.048 320.5,315.5 Z M 332.5,340.5 C 332.334,344.846 332.501,349.179 333,353.5C 340.449,348.903 340.283,344.57 332.5,340.5 Z"/></g>
</svg>
